<svg xmlns="http://www.w3.org/2000/svg" viewBox="0 0 348 400" width="348" height="400" font-family="sans-serif">
<rect width="100%" height="100%" fill="white"/>
<text x="20" y="32" font-size="22" font-weight="700" fill="#111827">Horní předsíň</text>
<line x1="20" y1="42" x2="328" y2="42" stroke="#374151" stroke-width="1"/>
<text x="20" y="72" font-size="12" font-style="italic" fill="#6b7280">U schodů</text>
<rect x="20" y="82" width="130" height="122" fill="#f9fafb" stroke="#374151" stroke-width="2" rx="8" ry="8"/>
<rect x="30" y="110" width="110" height="84" fill="#dbeafe" stroke="#374151" stroke-width="1.5"/>
<rect x="44" y="122" width="82" height="40" fill="white" stroke="#374151" stroke-width="1" rx="3" ry="3"/>
<text x="85.0" y="175" text-anchor="middle" font-family="sans-serif" font-size="11" font-weight="600" fill="#111827">Schody</text>
<text x="85.0" y="189" text-anchor="middle" font-family="monospace" font-size="9" fill="#6b7280">L-01</text>
<text x="30" y="102" font-family="monospace" font-size="9" fill="#6b7280">P-HP-H1</text>
<text x="140" y="102" text-anchor="end" font-family="sans-serif" font-size="9" font-weight="700" fill="#6b7280">NON-HUE</text>
<rect x="20" y="222" width="130" height="122" fill="#f9fafb" stroke="#374151" stroke-width="2" rx="8" ry="8"/>
<rect x="30" y="250" width="110" height="84" fill="#dbeafe" stroke="#374151" stroke-width="1.5"/>
<rect x="44" y="262" width="82" height="40" fill="white" stroke="#374151" stroke-width="1" rx="3" ry="3"/>
<text x="85.0" y="315" text-anchor="middle" font-family="sans-serif" font-size="11" font-weight="600" fill="#111827">Horní předsíň lustr</text>
<text x="85.0" y="329" text-anchor="middle" font-family="monospace" font-size="9" fill="#6b7280">L-03</text>
<text x="30" y="242" font-family="monospace" font-size="9" fill="#6b7280">P-HP-H2</text>
<text x="140" y="242" text-anchor="end" font-family="sans-serif" font-size="9" font-weight="700" fill="#6b7280">NON-HUE</text>
<text x="198" y="72" font-size="12" font-style="italic" fill="#6b7280">Samostatný (paralelka)</text>
<rect x="198" y="82" width="130" height="122" fill="#f9fafb" stroke="#374151" stroke-width="2" rx="8" ry="8"/>
<rect x="208" y="110" width="110" height="84" fill="#dbeafe" stroke="#374151" stroke-width="1.5"/>
<rect x="222" y="122" width="82" height="40" fill="white" stroke="#374151" stroke-width="1" rx="3" ry="3"/>
<text x="263.0" y="175" text-anchor="middle" font-family="sans-serif" font-size="11" font-weight="600" fill="#111827">Horní předsíň lustr</text>
<text x="263.0" y="189" text-anchor="middle" font-family="monospace" font-size="9" fill="#6b7280">L-03</text>
<text x="208" y="102" font-family="monospace" font-size="9" fill="#6b7280">P-HP-H3</text>
<text x="318" y="102" text-anchor="end" font-family="sans-serif" font-size="9" font-weight="700" fill="#6b7280">NON-HUE</text>
<text x="198" y="216" font-size="10" fill="#6b7280">Paralelka k SW-H2 přes stávající schodišťákový drát</text>
<rect x="20" y="365" width="14" height="14" fill="#ffedd5" stroke="#374151" stroke-width="1"/>
<text x="40" y="376" font-size="11" fill="#111827">HUE</text>
<rect x="120" y="365" width="14" height="14" fill="#dbeafe" stroke="#374151" stroke-width="1"/>
<text x="140" y="376" font-size="11" fill="#111827">non-HUE</text>
<rect x="220" y="365" width="14" height="14" fill="#ede9fe" stroke="#374151" stroke-width="1"/>
<text x="240" y="376" font-size="11" fill="#111827">mixed</text>
<rect x="320" y="365" width="14" height="14" fill="#e5e7eb" stroke="#374151" stroke-width="1"/>
<text x="340" y="376" font-size="11" fill="#111827">existing</text>
</svg>