<svg xmlns="http://www.w3.org/2000/svg" viewBox="0 0 590 276" width="590" height="276" font-family="sans-serif">
<rect width="100%" height="100%" fill="white"/>
<text x="20" y="32" font-size="22" font-weight="700" fill="#111827">Kuchyň</text>
<line x1="20" y1="42" x2="570" y2="42" stroke="#374151" stroke-width="1"/>
<text x="20" y="72" font-size="12" font-style="italic" fill="#6b7280">—</text>
<rect x="20" y="82" width="550" height="122" fill="#f9fafb" stroke="#374151" stroke-width="2" rx="8" ry="8"/>
<rect x="30" y="110" width="90" height="84" fill="#f3f4f6" stroke="#374151" stroke-width="1.5"/>
<circle cx="75.0" cy="146.0" r="22" fill="white" stroke="#374151" stroke-width="1.5"/>
<circle cx="68.0" cy="146.0" r="2.5" fill="#374151"/>
<circle cx="82.0" cy="146.0" r="2.5" fill="#374151"/>
<text x="75.0" y="186" text-anchor="middle" font-family="sans-serif" font-size="11" fill="#111827">Z</text>
<rect x="84" y="114" width="32" height="13" fill="white" stroke="#1e3a8a" stroke-width="1" rx="2" ry="2"/>
<text x="100.0" y="123.5" text-anchor="middle" font-family="sans-serif" font-size="8" font-weight="700" fill="#1e3a8a">220V</text>
<rect x="120" y="110" width="110" height="84" fill="#dbeafe" stroke="#374151" stroke-width="1.5"/>
<rect x="134" y="122" width="82" height="40" fill="white" stroke="#374151" stroke-width="1" rx="3" ry="3"/>
<text x="175.0" y="175" text-anchor="middle" font-family="sans-serif" font-size="11" font-weight="600" fill="#111827">Lišta 3</text>
<text x="175.0" y="189" text-anchor="middle" font-family="monospace" font-size="9" fill="#6b7280">L-07</text>
<rect x="194" y="114" width="32" height="13" fill="white" stroke="#1e3a8a" stroke-width="1" rx="2" ry="2"/>
<text x="210.0" y="123.5" text-anchor="middle" font-family="sans-serif" font-size="8" font-weight="700" fill="#1e3a8a">220V</text>
<rect x="230" y="110" width="110" height="84" fill="#dcfce7" stroke="#374151" stroke-width="1.5"/>
<rect x="244" y="122" width="82" height="40" fill="white" stroke="#374151" stroke-width="1" rx="3" ry="3"/>
<text x="285.0" y="175" text-anchor="middle" font-family="sans-serif" font-size="11" font-weight="600" fill="#111827">LED A</text>
<text x="285.0" y="189" text-anchor="middle" font-family="monospace" font-size="9" fill="#6b7280">L-14</text>
<rect x="304" y="114" width="32" height="13" fill="white" stroke="#047857" stroke-width="1" rx="2" ry="2"/>
<text x="320.0" y="123.5" text-anchor="middle" font-family="sans-serif" font-size="8" font-weight="700" fill="#047857">24V</text>
<rect x="340" y="110" width="110" height="84" fill="#dcfce7" stroke="#374151" stroke-width="1.5"/>
<rect x="354" y="122" width="82" height="40" fill="white" stroke="#374151" stroke-width="1" rx="3" ry="3"/>
<text x="395.0" y="175" text-anchor="middle" font-family="sans-serif" font-size="11" font-weight="600" fill="#111827">LED B</text>
<text x="395.0" y="189" text-anchor="middle" font-family="monospace" font-size="9" fill="#6b7280">L-15</text>
<rect x="414" y="114" width="32" height="13" fill="white" stroke="#047857" stroke-width="1" rx="2" ry="2"/>
<text x="430.0" y="123.5" text-anchor="middle" font-family="sans-serif" font-size="8" font-weight="700" fill="#047857">24V</text>
<line x1="340" y1="116" x2="340" y2="188" stroke="#374151" stroke-width="1" stroke-dasharray="3,3"/>
<rect x="450" y="110" width="110" height="84" fill="#dcfce7" stroke="#374151" stroke-width="1.5"/>
<rect x="464" y="122" width="82" height="40" fill="white" stroke="#374151" stroke-width="1" rx="3" ry="3"/>
<text x="505.0" y="175" text-anchor="middle" font-family="sans-serif" font-size="11" font-weight="600" fill="#111827">LED digestoř</text>
<text x="505.0" y="189" text-anchor="middle" font-family="monospace" font-size="9" fill="#6b7280">L-16</text>
<rect x="524" y="114" width="32" height="13" fill="white" stroke="#047857" stroke-width="1" rx="2" ry="2"/>
<text x="540.0" y="123.5" text-anchor="middle" font-family="sans-serif" font-size="8" font-weight="700" fill="#047857">24V</text>
<text x="30" y="102" font-family="monospace" font-size="9" fill="#6b7280">P-KU</text>
<text x="20" y="216" font-size="10" fill="#6b7280">Stávající rámeček. Lišta 3 je paralelka k obývákovému SW-D1 (L-07, 220V). Ostatní tlačítka ovládají kuchyňské 24V LED (L-14, L-15, L-16) přes stávající SH-E3.</text>
<rect x="20" y="241" width="14" height="14" fill="#ffedd5" stroke="#374151" stroke-width="1"/>
<text x="40" y="252" font-size="11" fill="#111827">HUE</text>
<rect x="130" y="241" width="14" height="14" fill="#dbeafe" stroke="#374151" stroke-width="1"/>
<text x="150" y="252" font-size="11" fill="#111827">non-HUE</text>
<rect x="240" y="241" width="14" height="14" fill="#fef3c7" stroke="#374151" stroke-width="1"/>
<text x="260" y="252" font-size="11" fill="#111827">LED-trafo</text>
<rect x="350" y="241" width="14" height="14" fill="#dcfce7" stroke="#374151" stroke-width="1"/>
<text x="370" y="252" font-size="11" fill="#111827">RGBW-PM</text>
<rect x="460" y="241" width="32" height="13" fill="white" stroke="#1e3a8a" stroke-width="1" rx="2" ry="2"/>
<text x="476.0" y="250.5" text-anchor="middle" font-family="sans-serif" font-size="8" font-weight="700" fill="#1e3a8a">220V</text>
<text x="498" y="252" font-size="11" fill="#111827">220V</text>
<rect x="560" y="241" width="32" height="13" fill="white" stroke="#047857" stroke-width="1" rx="2" ry="2"/>
<text x="576.0" y="250.5" text-anchor="middle" font-family="sans-serif" font-size="8" font-weight="700" fill="#047857">24V</text>
<text x="598" y="252" font-size="11" fill="#111827">24V</text>
</svg>