<svg xmlns="http://www.w3.org/2000/svg" viewBox="0 0 280 612" width="280" height="612" font-family="sans-serif">
<rect width="100%" height="100%" fill="white"/>
<text x="20" y="32" font-size="22" font-weight="700" fill="#111827">Obývák</text>
<line x1="20" y1="42" x2="260" y2="42" stroke="#374151" stroke-width="1"/>
<text x="20" y="72" font-size="12" font-style="italic" fill="#6b7280">Vstup</text>
<rect x="20" y="82" width="240" height="458" fill="#f9fafb" stroke="#374151" stroke-width="2" rx="8" ry="8"/>
<rect x="85.0" y="110" width="110" height="84" fill="#dbeafe" stroke="#374151" stroke-width="1.5"/>
<rect x="99.0" y="122" width="82" height="40" fill="white" stroke="#374151" stroke-width="1" rx="3" ry="3"/>
<text x="140.0" y="175" text-anchor="middle" font-family="sans-serif" font-size="11" font-weight="600" fill="#111827">Schodiště</text>
<text x="140.0" y="189" text-anchor="middle" font-family="monospace" font-size="9" fill="#6b7280">L-01</text>
<rect x="159.0" y="114" width="32" height="13" fill="white" stroke="#1e3a8a" stroke-width="1" rx="2" ry="2"/>
<text x="175.0" y="123.5" text-anchor="middle" font-family="sans-serif" font-size="8" font-weight="700" fill="#1e3a8a">220V</text>
<rect x="30.0" y="194" width="110" height="84" fill="#ffedd5" stroke="#374151" stroke-width="1.5"/>
<rect x="44.0" y="206" width="82" height="40" fill="white" stroke="#374151" stroke-width="1" rx="3" ry="3"/>
<text x="85.0" y="259" text-anchor="middle" font-family="sans-serif" font-size="11" font-weight="600" fill="#111827">Předsíň strop</text>
<text x="85.0" y="273" text-anchor="middle" font-family="monospace" font-size="9" fill="#6b7280">L-09</text>
<rect x="104.0" y="198" width="32" height="13" fill="white" stroke="#1e3a8a" stroke-width="1" rx="2" ry="2"/>
<text x="120.0" y="207.5" text-anchor="middle" font-family="sans-serif" font-size="8" font-weight="700" fill="#1e3a8a">220V</text>
<rect x="140.0" y="194" width="110" height="84" fill="#ffedd5" stroke="#374151" stroke-width="1.5"/>
<rect x="154.0" y="206" width="82" height="40" fill="white" stroke="#374151" stroke-width="1" rx="3" ry="3"/>
<text x="195.0" y="259" text-anchor="middle" font-family="sans-serif" font-size="11" font-weight="600" fill="#111827">Obývák strop</text>
<text x="195.0" y="273" text-anchor="middle" font-family="monospace" font-size="9" fill="#6b7280">L-10</text>
<rect x="214.0" y="198" width="32" height="13" fill="white" stroke="#1e3a8a" stroke-width="1" rx="2" ry="2"/>
<text x="230.0" y="207.5" text-anchor="middle" font-family="sans-serif" font-size="8" font-weight="700" fill="#1e3a8a">220V</text>
<line x1="140.0" y1="200" x2="140.0" y2="272" stroke="#374151" stroke-width="1" stroke-dasharray="3,3"/>
<rect x="85.0" y="278" width="110" height="84" fill="#dcfce7" stroke="#374151" stroke-width="1.5"/>
<rect x="99.0" y="290" width="82" height="40" fill="white" stroke="#374151" stroke-width="1" rx="3" ry="3"/>
<text x="140.0" y="343" text-anchor="middle" font-family="sans-serif" font-size="11" font-weight="600" fill="#111827">LED strop</text>
<text x="140.0" y="357" text-anchor="middle" font-family="monospace" font-size="9" fill="#6b7280">L-12</text>
<rect x="159.0" y="282" width="32" height="13" fill="white" stroke="#047857" stroke-width="1" rx="2" ry="2"/>
<text x="175.0" y="291.5" text-anchor="middle" font-family="sans-serif" font-size="8" font-weight="700" fill="#047857">24V</text>
<rect x="30.0" y="362" width="110" height="84" fill="#dbeafe" stroke="#374151" stroke-width="1.5"/>
<rect x="44.0" y="374" width="82" height="40" fill="white" stroke="#374151" stroke-width="1" rx="3" ry="3"/>
<text x="85.0" y="427" text-anchor="middle" font-family="sans-serif" font-size="11" font-weight="600" fill="#111827">Lišta 1</text>
<text x="85.0" y="441" text-anchor="middle" font-family="monospace" font-size="9" fill="#6b7280">L-05</text>
<rect x="104.0" y="366" width="32" height="13" fill="white" stroke="#1e3a8a" stroke-width="1" rx="2" ry="2"/>
<text x="120.0" y="375.5" text-anchor="middle" font-family="sans-serif" font-size="8" font-weight="700" fill="#1e3a8a">220V</text>
<rect x="140.0" y="362" width="110" height="84" fill="#dbeafe" stroke="#374151" stroke-width="1.5"/>
<rect x="154.0" y="374" width="82" height="40" fill="white" stroke="#374151" stroke-width="1" rx="3" ry="3"/>
<text x="195.0" y="427" text-anchor="middle" font-family="sans-serif" font-size="11" font-weight="600" fill="#111827">Lišta 2</text>
<text x="195.0" y="441" text-anchor="middle" font-family="monospace" font-size="9" fill="#6b7280">L-06</text>
<rect x="214.0" y="366" width="32" height="13" fill="white" stroke="#1e3a8a" stroke-width="1" rx="2" ry="2"/>
<text x="230.0" y="375.5" text-anchor="middle" font-family="sans-serif" font-size="8" font-weight="700" fill="#1e3a8a">220V</text>
<line x1="140.0" y1="368" x2="140.0" y2="440" stroke="#374151" stroke-width="1" stroke-dasharray="3,3"/>
<rect x="30.0" y="446" width="110" height="84" fill="#dbeafe" stroke="#374151" stroke-width="1.5"/>
<rect x="44.0" y="458" width="82" height="40" fill="white" stroke="#374151" stroke-width="1" rx="3" ry="3"/>
<text x="85.0" y="511" text-anchor="middle" font-family="sans-serif" font-size="11" font-weight="600" fill="#111827">Lišta 3</text>
<text x="85.0" y="525" text-anchor="middle" font-family="monospace" font-size="9" fill="#6b7280">L-07</text>
<rect x="104.0" y="450" width="32" height="13" fill="white" stroke="#1e3a8a" stroke-width="1" rx="2" ry="2"/>
<text x="120.0" y="459.5" text-anchor="middle" font-family="sans-serif" font-size="8" font-weight="700" fill="#1e3a8a">220V</text>
<rect x="140.0" y="446" width="110" height="84" fill="#ffedd5" stroke="#374151" stroke-width="1.5"/>
<rect x="154.0" y="458" width="82" height="40" fill="white" stroke="#374151" stroke-width="1" rx="3" ry="3"/>
<text x="195.0" y="511" text-anchor="middle" font-family="sans-serif" font-size="11" font-weight="600" fill="#111827">Lustr jídelna</text>
<text x="195.0" y="525" text-anchor="middle" font-family="monospace" font-size="9" fill="#6b7280">L-04</text>
<rect x="214.0" y="450" width="32" height="13" fill="white" stroke="#1e3a8a" stroke-width="1" rx="2" ry="2"/>
<text x="230.0" y="459.5" text-anchor="middle" font-family="sans-serif" font-size="8" font-weight="700" fill="#1e3a8a">220V</text>
<line x1="140.0" y1="452" x2="140.0" y2="524" stroke="#374151" stroke-width="1" stroke-dasharray="3,3"/>
<text x="30" y="102" font-family="monospace" font-size="9" fill="#6b7280">P-OB</text>
<text x="20" y="552" font-size="10" fill="#6b7280">Jeden vertikální rámeček (5-násobný). Pořadí shora dolů: jednovypínač → dvojvypínač → jednovypínač → dvojvypínač → dvojvypínač.
</text>
<rect x="20" y="577" width="14" height="14" fill="#ffedd5" stroke="#374151" stroke-width="1"/>
<text x="40" y="588" font-size="11" fill="#111827">HUE</text>
<rect x="130" y="577" width="14" height="14" fill="#dbeafe" stroke="#374151" stroke-width="1"/>
<text x="150" y="588" font-size="11" fill="#111827">non-HUE</text>
<rect x="240" y="577" width="14" height="14" fill="#fef3c7" stroke="#374151" stroke-width="1"/>
<text x="260" y="588" font-size="11" fill="#111827">LED-trafo</text>
<rect x="350" y="577" width="14" height="14" fill="#dcfce7" stroke="#374151" stroke-width="1"/>
<text x="370" y="588" font-size="11" fill="#111827">RGBW-PM</text>
<rect x="460" y="577" width="32" height="13" fill="white" stroke="#1e3a8a" stroke-width="1" rx="2" ry="2"/>
<text x="476.0" y="586.5" text-anchor="middle" font-family="sans-serif" font-size="8" font-weight="700" fill="#1e3a8a">220V</text>
<text x="498" y="588" font-size="11" fill="#111827">220V</text>
<rect x="560" y="577" width="32" height="13" fill="white" stroke="#047857" stroke-width="1" rx="2" ry="2"/>
<text x="576.0" y="586.5" text-anchor="middle" font-family="sans-serif" font-size="8" font-weight="700" fill="#047857">24V</text>
<text x="598" y="588" font-size="11" fill="#111827">24V</text>
</svg>