<svg xmlns="http://www.w3.org/2000/svg" viewBox="0 0 280 644" width="280" height="644" font-family="sans-serif">
<rect width="100%" height="100%" fill="white"/>
<text x="20" y="32" font-size="22" font-weight="700" fill="#111827">Obývák</text>
<line x1="20" y1="42" x2="260" y2="42" stroke="#374151" stroke-width="1"/>
<text x="20" y="72" font-size="12" font-style="italic" fill="#6b7280">Vstup</text>
<rect x="20" y="82" width="240" height="490" fill="#f9fafb" stroke="#374151" stroke-width="2" rx="8" ry="8"/>
<rect x="85.0" y="110" width="110" height="84" fill="#dbeafe"/>
<rect x="85.0" y="110" width="110" height="84" fill="none" stroke="#374151" stroke-width="1.5"/>
<rect x="99.0" y="122" width="82" height="40" fill="white" stroke="#374151" stroke-width="1" rx="3" ry="3"/>
<text x="140.0" y="175" text-anchor="middle" font-family="sans-serif" font-size="11" font-weight="600" fill="#111827">Schodiště</text>
<text x="140.0" y="189" text-anchor="middle" font-family="monospace" font-size="9" fill="#6b7280">L-01</text>
<rect x="159.0" y="177" width="32" height="13" fill="white" stroke="#1e3a8a" stroke-width="1" rx="2" ry="2"/>
<text x="175.0" y="186.5" text-anchor="middle" font-family="sans-serif" font-size="8" font-weight="700" fill="#1e3a8a">220V</text>
<rect x="30.0" y="202" width="110" height="84" fill="#e9d5ff"/>
<rect x="140.0" y="202" width="110" height="84" fill="#e9d5ff"/>
<rect x="30.0" y="202" width="220" height="84" fill="none" stroke="#374151" stroke-width="1.5"/>
<line x1="140.0" y1="208" x2="140.0" y2="280" stroke="#374151" stroke-width="1" stroke-dasharray="3,3"/>
<rect x="44.0" y="214" width="82" height="40" fill="white" stroke="#374151" stroke-width="1" rx="3" ry="3"/>
<text x="85.0" y="267" text-anchor="middle" font-family="sans-serif" font-size="11" font-weight="600" fill="#111827">Předsíň strop</text>
<text x="85.0" y="281" text-anchor="middle" font-family="monospace" font-size="9" fill="#6b7280">L-09</text>
<rect x="104.0" y="269" width="32" height="13" fill="white" stroke="#1e3a8a" stroke-width="1" rx="2" ry="2"/>
<text x="120.0" y="278.5" text-anchor="middle" font-family="sans-serif" font-size="8" font-weight="700" fill="#1e3a8a">220V</text>
<rect x="154.0" y="214" width="82" height="40" fill="white" stroke="#374151" stroke-width="1" rx="3" ry="3"/>
<text x="195.0" y="267" text-anchor="middle" font-family="sans-serif" font-size="11" font-weight="600" fill="#111827">Obývák strop</text>
<text x="195.0" y="281" text-anchor="middle" font-family="monospace" font-size="9" fill="#6b7280">L-10</text>
<rect x="214.0" y="269" width="32" height="13" fill="white" stroke="#1e3a8a" stroke-width="1" rx="2" ry="2"/>
<text x="230.0" y="278.5" text-anchor="middle" font-family="sans-serif" font-size="8" font-weight="700" fill="#1e3a8a">220V</text>
<rect x="85.0" y="294" width="110" height="84" fill="#dcfce7"/>
<rect x="85.0" y="294" width="110" height="84" fill="none" stroke="#374151" stroke-width="1.5"/>
<rect x="99.0" y="306" width="82" height="40" fill="white" stroke="#374151" stroke-width="1" rx="3" ry="3"/>
<text x="140.0" y="359" text-anchor="middle" font-family="sans-serif" font-size="11" font-weight="600" fill="#111827">LED strop</text>
<text x="140.0" y="373" text-anchor="middle" font-family="monospace" font-size="9" fill="#6b7280">L-12</text>
<rect x="159.0" y="361" width="32" height="13" fill="white" stroke="#047857" stroke-width="1" rx="2" ry="2"/>
<text x="175.0" y="370.5" text-anchor="middle" font-family="sans-serif" font-size="8" font-weight="700" fill="#047857">24V</text>
<rect x="30.0" y="386" width="110" height="84" fill="#dbeafe"/>
<rect x="140.0" y="386" width="110" height="84" fill="#dbeafe"/>
<rect x="30.0" y="386" width="220" height="84" fill="none" stroke="#374151" stroke-width="1.5"/>
<line x1="140.0" y1="392" x2="140.0" y2="464" stroke="#374151" stroke-width="1" stroke-dasharray="3,3"/>
<rect x="44.0" y="398" width="82" height="40" fill="white" stroke="#374151" stroke-width="1" rx="3" ry="3"/>
<text x="85.0" y="451" text-anchor="middle" font-family="sans-serif" font-size="11" font-weight="600" fill="#111827">Lišta 1</text>
<text x="85.0" y="465" text-anchor="middle" font-family="monospace" font-size="9" fill="#6b7280">L-05</text>
<rect x="104.0" y="453" width="32" height="13" fill="white" stroke="#1e3a8a" stroke-width="1" rx="2" ry="2"/>
<text x="120.0" y="462.5" text-anchor="middle" font-family="sans-serif" font-size="8" font-weight="700" fill="#1e3a8a">220V</text>
<rect x="154.0" y="398" width="82" height="40" fill="white" stroke="#374151" stroke-width="1" rx="3" ry="3"/>
<text x="195.0" y="451" text-anchor="middle" font-family="sans-serif" font-size="11" font-weight="600" fill="#111827">Lišta 2</text>
<text x="195.0" y="465" text-anchor="middle" font-family="monospace" font-size="9" fill="#6b7280">L-06</text>
<rect x="214.0" y="453" width="32" height="13" fill="white" stroke="#1e3a8a" stroke-width="1" rx="2" ry="2"/>
<text x="230.0" y="462.5" text-anchor="middle" font-family="sans-serif" font-size="8" font-weight="700" fill="#1e3a8a">220V</text>
<rect x="30.0" y="478" width="110" height="84" fill="#dbeafe"/>
<rect x="140.0" y="478" width="110" height="84" fill="#e9d5ff"/>
<rect x="30.0" y="478" width="220" height="84" fill="none" stroke="#374151" stroke-width="1.5"/>
<line x1="140.0" y1="484" x2="140.0" y2="556" stroke="#374151" stroke-width="1" stroke-dasharray="3,3"/>
<rect x="44.0" y="490" width="82" height="40" fill="white" stroke="#374151" stroke-width="1" rx="3" ry="3"/>
<text x="85.0" y="543" text-anchor="middle" font-family="sans-serif" font-size="11" font-weight="600" fill="#111827">Lišta 3</text>
<text x="85.0" y="557" text-anchor="middle" font-family="monospace" font-size="9" fill="#6b7280">L-07</text>
<rect x="104.0" y="545" width="32" height="13" fill="white" stroke="#1e3a8a" stroke-width="1" rx="2" ry="2"/>
<text x="120.0" y="554.5" text-anchor="middle" font-family="sans-serif" font-size="8" font-weight="700" fill="#1e3a8a">220V</text>
<rect x="154.0" y="490" width="82" height="40" fill="white" stroke="#374151" stroke-width="1" rx="3" ry="3"/>
<text x="195.0" y="543" text-anchor="middle" font-family="sans-serif" font-size="11" font-weight="600" fill="#111827">Lustr jídelna</text>
<text x="195.0" y="557" text-anchor="middle" font-family="monospace" font-size="9" fill="#6b7280">L-04</text>
<rect x="214.0" y="545" width="32" height="13" fill="white" stroke="#1e3a8a" stroke-width="1" rx="2" ry="2"/>
<text x="230.0" y="554.5" text-anchor="middle" font-family="sans-serif" font-size="8" font-weight="700" fill="#1e3a8a">220V</text>
<text x="30" y="102" font-family="monospace" font-size="9" fill="#6b7280">P-OB</text>
<text x="20" y="584" font-size="10" fill="#6b7280">Jeden vertikální rámeček (5-násobný). Pořadí shora dolů: jednovypínač → dvojvypínač → jednovypínač → dvojvypínač → dvojvypínač.
</text>
<rect x="20" y="609" width="14" height="14" fill="#e9d5ff" stroke="#374151" stroke-width="1"/>
<text x="40" y="620" font-size="11" fill="#111827">HUE</text>
<rect x="130" y="609" width="14" height="14" fill="#dbeafe" stroke="#374151" stroke-width="1"/>
<text x="150" y="620" font-size="11" fill="#111827">non-HUE</text>
<rect x="240" y="609" width="14" height="14" fill="#fef3c7" stroke="#374151" stroke-width="1"/>
<text x="260" y="620" font-size="11" fill="#111827">LED-trafo</text>
<rect x="350" y="609" width="14" height="14" fill="#dcfce7" stroke="#374151" stroke-width="1"/>
<text x="370" y="620" font-size="11" fill="#111827">RGBW-PM</text>
<rect x="460" y="609" width="32" height="13" fill="white" stroke="#1e3a8a" stroke-width="1" rx="2" ry="2"/>
<text x="476.0" y="618.5" text-anchor="middle" font-family="sans-serif" font-size="8" font-weight="700" fill="#1e3a8a">220V</text>
<text x="498" y="620" font-size="11" fill="#111827">220V</text>
<rect x="560" y="609" width="32" height="13" fill="white" stroke="#047857" stroke-width="1" rx="2" ry="2"/>
<text x="576.0" y="618.5" text-anchor="middle" font-family="sans-serif" font-size="8" font-weight="700" fill="#047857">24V</text>
<text x="598" y="620" font-size="11" fill="#111827">24V</text>
</svg>