<svg xmlns="http://www.w3.org/2000/svg" viewBox="0 0 280 836" width="280" height="836" font-family="sans-serif">
<rect width="100%" height="100%" fill="white"/>
<text x="20" y="32" font-size="22" font-weight="700" fill="#111827">Obývák</text>
<line x1="20" y1="42" x2="260" y2="42" stroke="#374151" stroke-width="1"/>
<text x="20" y="72" font-size="12" font-style="italic" fill="#6b7280">Vstup</text>
<rect x="20" y="82" width="240" height="122" fill="#f9fafb" stroke="#374151" stroke-width="2" rx="8" ry="8"/>
<rect x="30" y="110" width="220" height="84" fill="#dbeafe" stroke="#374151" stroke-width="1.5"/>
<line x1="140" y1="116" x2="140" y2="188" stroke="#374151" stroke-width="1" stroke-dasharray="3,3"/>
<rect x="44" y="122" width="82" height="40" fill="white" stroke="#374151" stroke-width="1" rx="3" ry="3"/>
<text x="85.0" y="175" text-anchor="middle" font-family="sans-serif" font-size="11" font-weight="600" fill="#111827">Schodiště</text>
<text x="85.0" y="189" text-anchor="middle" font-family="monospace" font-size="9" fill="#6b7280">L-01</text>
<rect x="154" y="122" width="82" height="40" fill="#f3f4f6" stroke="#374151" stroke-width="1" rx="3" ry="3"/>
<text x="195.0" y="145.0" text-anchor="middle" font-family="sans-serif" font-size="10" font-style="italic" fill="#6b7280">neobsazeno</text>
<text x="195.0" y="175" text-anchor="middle" font-family="sans-serif" font-size="11" font-weight="600" fill="#111827">schody</text>
<text x="30" y="102" font-family="monospace" font-size="9" fill="#6b7280">P-OB-A</text>
<text x="250" y="102" text-anchor="end" font-family="sans-serif" font-size="9" font-weight="700" fill="#6b7280">NON-HUE</text>
<rect x="20" y="222" width="240" height="122" fill="#f9fafb" stroke="#374151" stroke-width="2" rx="8" ry="8"/>
<rect x="30" y="250" width="220" height="84" fill="#ffedd5" stroke="#374151" stroke-width="1.5"/>
<line x1="140" y1="256" x2="140" y2="328" stroke="#374151" stroke-width="1" stroke-dasharray="3,3"/>
<rect x="44" y="262" width="82" height="40" fill="white" stroke="#374151" stroke-width="1" rx="3" ry="3"/>
<text x="85.0" y="315" text-anchor="middle" font-family="sans-serif" font-size="11" font-weight="600" fill="#111827">Předsíň strop</text>
<text x="85.0" y="329" text-anchor="middle" font-family="monospace" font-size="9" fill="#6b7280">L-11</text>
<rect x="154" y="262" width="82" height="40" fill="white" stroke="#374151" stroke-width="1" rx="3" ry="3"/>
<text x="195.0" y="315" text-anchor="middle" font-family="sans-serif" font-size="11" font-weight="600" fill="#111827">Obývák strop</text>
<text x="195.0" y="329" text-anchor="middle" font-family="monospace" font-size="9" fill="#6b7280">L-10</text>
<text x="30" y="242" font-family="monospace" font-size="9" fill="#6b7280">P-OB-B</text>
<text x="250" y="242" text-anchor="end" font-family="sans-serif" font-size="9" font-weight="700" fill="#6b7280">HUE</text>
<rect x="20" y="362" width="130" height="122" fill="#f9fafb" stroke="#374151" stroke-width="2" rx="8" ry="8"/>
<rect x="30" y="390" width="110" height="84" fill="#e5e7eb" stroke="#374151" stroke-width="1.5"/>
<rect x="44" y="402" width="82" height="40" fill="white" stroke="#374151" stroke-width="1" rx="3" ry="3"/>
<text x="85.0" y="455" text-anchor="middle" font-family="sans-serif" font-size="11" font-weight="600" fill="#111827">LED strop</text>
<text x="85.0" y="469" text-anchor="middle" font-family="monospace" font-size="9" fill="#6b7280">L-12</text>
<text x="30" y="382" font-family="monospace" font-size="9" fill="#6b7280">P-OB-E</text>
<text x="140" y="382" text-anchor="end" font-family="sans-serif" font-size="9" font-weight="700" fill="#6b7280">EXISTING</text>
<rect x="20" y="502" width="240" height="122" fill="#f9fafb" stroke="#374151" stroke-width="2" rx="8" ry="8"/>
<rect x="30" y="530" width="220" height="84" fill="#dbeafe" stroke="#374151" stroke-width="1.5"/>
<line x1="140" y1="536" x2="140" y2="608" stroke="#374151" stroke-width="1" stroke-dasharray="3,3"/>
<rect x="44" y="542" width="82" height="40" fill="white" stroke="#374151" stroke-width="1" rx="3" ry="3"/>
<text x="85.0" y="595" text-anchor="middle" font-family="sans-serif" font-size="11" font-weight="600" fill="#111827">Lišta 1</text>
<text x="85.0" y="609" text-anchor="middle" font-family="monospace" font-size="9" fill="#6b7280">L-05</text>
<rect x="154" y="542" width="82" height="40" fill="white" stroke="#374151" stroke-width="1" rx="3" ry="3"/>
<text x="195.0" y="595" text-anchor="middle" font-family="sans-serif" font-size="11" font-weight="600" fill="#111827">Lišta 2</text>
<text x="195.0" y="609" text-anchor="middle" font-family="monospace" font-size="9" fill="#6b7280">L-06</text>
<text x="30" y="522" font-family="monospace" font-size="9" fill="#6b7280">P-OB-C</text>
<text x="250" y="522" text-anchor="end" font-family="sans-serif" font-size="9" font-weight="700" fill="#6b7280">NON-HUE</text>
<text x="20" y="636" font-size="10" fill="#6b7280">220V, nedimovat</text>
<rect x="20" y="658" width="240" height="122" fill="#f9fafb" stroke="#374151" stroke-width="2" rx="8" ry="8"/>
<rect x="30" y="686" width="220" height="84" fill="#ffedd5" stroke="#374151" stroke-width="1.5"/>
<line x1="140" y1="692" x2="140" y2="764" stroke="#374151" stroke-width="1" stroke-dasharray="3,3"/>
<rect x="44" y="698" width="82" height="40" fill="white" stroke="#374151" stroke-width="1" rx="3" ry="3"/>
<text x="85.0" y="751" text-anchor="middle" font-family="sans-serif" font-size="11" font-weight="600" fill="#111827">Lišta 3</text>
<text x="85.0" y="765" text-anchor="middle" font-family="monospace" font-size="9" fill="#6b7280">L-07</text>
<rect x="154" y="698" width="82" height="40" fill="white" stroke="#374151" stroke-width="1" rx="3" ry="3"/>
<text x="195.0" y="751" text-anchor="middle" font-family="sans-serif" font-size="11" font-weight="600" fill="#111827">Lustr K</text>
<text x="195.0" y="765" text-anchor="middle" font-family="monospace" font-size="9" fill="#6b7280">L-08</text>
<text x="30" y="678" font-family="monospace" font-size="9" fill="#6b7280">P-OB-D</text>
<text x="250" y="678" text-anchor="end" font-family="sans-serif" font-size="9" font-weight="700" fill="#6b7280">HUE</text>
<rect x="20" y="801" width="14" height="14" fill="#ffedd5" stroke="#374151" stroke-width="1"/>
<text x="40" y="812" font-size="11" fill="#111827">HUE</text>
<rect x="120" y="801" width="14" height="14" fill="#dbeafe" stroke="#374151" stroke-width="1"/>
<text x="140" y="812" font-size="11" fill="#111827">non-HUE</text>
<rect x="220" y="801" width="14" height="14" fill="#ede9fe" stroke="#374151" stroke-width="1"/>
<text x="240" y="812" font-size="11" fill="#111827">mixed</text>
<rect x="320" y="801" width="14" height="14" fill="#e5e7eb" stroke="#374151" stroke-width="1"/>
<text x="340" y="812" font-size="11" fill="#111827">existing</text>
</svg>