<svg xmlns="http://www.w3.org/2000/svg" viewBox="0 0 1784 1344" width="1784" height="1344" font-family="sans-serif">
<rect width="100%" height="100%" fill="white"/>
<text x="20" y="36" font-size="24" font-weight="700" fill="#111827">Stav po úpravě — svítidla, vypínače a namontované Shelly</text>
<text x="20" y="58" font-size="12" font-style="italic" fill="#6b7280">Shelly (tmavá pilulka) je na rámečku (za vypínačem) nebo u svítidla podle umístění. Kuchyňský rámeček upravený: 2× zásuvka + dvojvypínač Lišta 3/LED digestoř (220V, s relé) + dvojvypínač LED A/B.</text>
<rect x="20" y="90" width="556" height="576" fill="#fefefe" stroke="#6b7280" stroke-width="1.5" stroke-dasharray="4,3" rx="6" ry="6"/>
<text x="36" y="120" font-size="16" font-weight="700" fill="#111827">Obývák</text>
<text x="36" y="144" font-size="11" font-style="italic" fill="#6b7280">Vstup</text>
<rect x="36" y="160" width="240" height="490" fill="#f9fafb" stroke="#374151" stroke-width="2" rx="8" ry="8"/>
<rect x="101.0" y="188" width="110" height="84" fill="#dbeafe"/>
<rect x="101.0" y="188" width="110" height="84" fill="none" stroke="#374151" stroke-width="1.5"/>
<rect x="115.0" y="200" width="82" height="40" fill="white" stroke="#374151" stroke-width="1" rx="3" ry="3"/>
<text x="156.0" y="253" text-anchor="middle" font-family="sans-serif" font-size="11" font-weight="600" fill="#111827">Schodiště</text>
<text x="156.0" y="267" text-anchor="middle" font-family="monospace" font-size="9" fill="#6b7280">L-01</text>
<rect x="175.0" y="192" width="32" height="13" fill="white" stroke="#1e3a8a" stroke-width="1" rx="2" ry="2"/>
<text x="191.0" y="201.5" text-anchor="middle" font-family="sans-serif" font-size="8" font-weight="700" fill="#1e3a8a">220V</text>
<rect x="46.0" y="280" width="110" height="84" fill="#e9d5ff"/>
<rect x="156.0" y="280" width="110" height="84" fill="#e9d5ff"/>
<rect x="46.0" y="280" width="220" height="84" fill="none" stroke="#374151" stroke-width="1.5"/>
<line x1="156.0" y1="286" x2="156.0" y2="358" stroke="#374151" stroke-width="1" stroke-dasharray="3,3"/>
<rect x="60.0" y="292" width="82" height="40" fill="white" stroke="#374151" stroke-width="1" rx="3" ry="3"/>
<text x="101.0" y="345" text-anchor="middle" font-family="sans-serif" font-size="11" font-weight="600" fill="#111827">Předsíň strop</text>
<text x="101.0" y="359" text-anchor="middle" font-family="monospace" font-size="9" fill="#6b7280">L-09</text>
<rect x="120.0" y="284" width="32" height="13" fill="white" stroke="#1e3a8a" stroke-width="1" rx="2" ry="2"/>
<text x="136.0" y="293.5" text-anchor="middle" font-family="sans-serif" font-size="8" font-weight="700" fill="#1e3a8a">220V</text>
<rect x="170.0" y="292" width="82" height="40" fill="white" stroke="#374151" stroke-width="1" rx="3" ry="3"/>
<text x="211.0" y="345" text-anchor="middle" font-family="sans-serif" font-size="11" font-weight="600" fill="#111827">Obývák strop</text>
<text x="211.0" y="359" text-anchor="middle" font-family="monospace" font-size="9" fill="#6b7280">L-10</text>
<rect x="230.0" y="284" width="32" height="13" fill="white" stroke="#1e3a8a" stroke-width="1" rx="2" ry="2"/>
<text x="246.0" y="293.5" text-anchor="middle" font-family="sans-serif" font-size="8" font-weight="700" fill="#1e3a8a">220V</text>
<rect x="101.0" y="372" width="110" height="84" fill="#dcfce7"/>
<rect x="101.0" y="372" width="110" height="84" fill="none" stroke="#374151" stroke-width="1.5"/>
<rect x="115.0" y="384" width="82" height="40" fill="white" stroke="#374151" stroke-width="1" rx="3" ry="3"/>
<text x="156.0" y="437" text-anchor="middle" font-family="sans-serif" font-size="11" font-weight="600" fill="#111827">LED strop</text>
<text x="156.0" y="451" text-anchor="middle" font-family="monospace" font-size="9" fill="#6b7280">L-12</text>
<rect x="175.0" y="376" width="32" height="13" fill="white" stroke="#047857" stroke-width="1" rx="2" ry="2"/>
<text x="191.0" y="385.5" text-anchor="middle" font-family="sans-serif" font-size="8" font-weight="700" fill="#047857">24V</text>
<rect x="46.0" y="464" width="110" height="84" fill="#dbeafe"/>
<rect x="156.0" y="464" width="110" height="84" fill="#dbeafe"/>
<rect x="46.0" y="464" width="220" height="84" fill="none" stroke="#374151" stroke-width="1.5"/>
<line x1="156.0" y1="470" x2="156.0" y2="542" stroke="#374151" stroke-width="1" stroke-dasharray="3,3"/>
<rect x="60.0" y="476" width="82" height="40" fill="white" stroke="#374151" stroke-width="1" rx="3" ry="3"/>
<text x="101.0" y="529" text-anchor="middle" font-family="sans-serif" font-size="11" font-weight="600" fill="#111827">Lišta 1</text>
<text x="101.0" y="543" text-anchor="middle" font-family="monospace" font-size="9" fill="#6b7280">L-05</text>
<rect x="120.0" y="468" width="32" height="13" fill="white" stroke="#1e3a8a" stroke-width="1" rx="2" ry="2"/>
<text x="136.0" y="477.5" text-anchor="middle" font-family="sans-serif" font-size="8" font-weight="700" fill="#1e3a8a">220V</text>
<rect x="170.0" y="476" width="82" height="40" fill="white" stroke="#374151" stroke-width="1" rx="3" ry="3"/>
<text x="211.0" y="529" text-anchor="middle" font-family="sans-serif" font-size="11" font-weight="600" fill="#111827">Lišta 2</text>
<text x="211.0" y="543" text-anchor="middle" font-family="monospace" font-size="9" fill="#6b7280">L-06</text>
<rect x="230.0" y="468" width="32" height="13" fill="white" stroke="#1e3a8a" stroke-width="1" rx="2" ry="2"/>
<text x="246.0" y="477.5" text-anchor="middle" font-family="sans-serif" font-size="8" font-weight="700" fill="#1e3a8a">220V</text>
<rect x="46.0" y="556" width="110" height="84" fill="#dbeafe"/>
<rect x="156.0" y="556" width="110" height="84" fill="#e9d5ff"/>
<rect x="46.0" y="556" width="220" height="84" fill="none" stroke="#374151" stroke-width="1.5"/>
<line x1="156.0" y1="562" x2="156.0" y2="634" stroke="#374151" stroke-width="1" stroke-dasharray="3,3"/>
<rect x="60.0" y="568" width="82" height="40" fill="white" stroke="#374151" stroke-width="1" rx="3" ry="3"/>
<text x="101.0" y="621" text-anchor="middle" font-family="sans-serif" font-size="11" font-weight="600" fill="#111827">Lišta 3</text>
<text x="101.0" y="635" text-anchor="middle" font-family="monospace" font-size="9" fill="#6b7280">L-07</text>
<rect x="120.0" y="560" width="32" height="13" fill="white" stroke="#1e3a8a" stroke-width="1" rx="2" ry="2"/>
<text x="136.0" y="569.5" text-anchor="middle" font-family="sans-serif" font-size="8" font-weight="700" fill="#1e3a8a">220V</text>
<rect x="170.0" y="568" width="82" height="40" fill="white" stroke="#374151" stroke-width="1" rx="3" ry="3"/>
<text x="211.0" y="621" text-anchor="middle" font-family="sans-serif" font-size="11" font-weight="600" fill="#111827">Lustr jídelna</text>
<text x="211.0" y="635" text-anchor="middle" font-family="monospace" font-size="9" fill="#6b7280">L-04</text>
<rect x="230.0" y="560" width="32" height="13" fill="white" stroke="#1e3a8a" stroke-width="1" rx="2" ry="2"/>
<text x="246.0" y="569.5" text-anchor="middle" font-family="sans-serif" font-size="8" font-weight="700" fill="#1e3a8a">220V</text>
<text x="46" y="180" font-family="monospace" font-size="9" fill="#6b7280">P-OB</text>
<text x="304" y="143" font-size="10" font-style="italic" fill="#6b7280">Svítidla</text>
<rect x="304" y="150" width="156" height="36" fill="#dbeafe" stroke="#374151" stroke-width="1" rx="14" ry="14"/>
<text x="314" y="163" font-family="monospace" font-size="8" fill="#6b7280">L-05</text>
<text x="314" y="178" font-size="11" font-weight="600" fill="#111827">Lišta 1</text>
<rect x="422" y="154" width="32" height="13" fill="white" stroke="#1e3a8a" stroke-width="1" rx="2" ry="2"/>
<text x="438.0" y="163.5" text-anchor="middle" font-family="sans-serif" font-size="8" font-weight="700" fill="#1e3a8a">220V</text>
<rect x="304" y="194" width="156" height="36" fill="#dbeafe" stroke="#374151" stroke-width="1" rx="14" ry="14"/>
<text x="314" y="207" font-family="monospace" font-size="8" fill="#6b7280">L-06</text>
<text x="314" y="222" font-size="11" font-weight="600" fill="#111827">Lišta 2</text>
<rect x="422" y="198" width="32" height="13" fill="white" stroke="#1e3a8a" stroke-width="1" rx="2" ry="2"/>
<text x="438.0" y="207.5" text-anchor="middle" font-family="sans-serif" font-size="8" font-weight="700" fill="#1e3a8a">220V</text>
<rect x="304" y="238" width="156" height="36" fill="#dbeafe" stroke="#374151" stroke-width="1" rx="14" ry="14"/>
<text x="314" y="251" font-family="monospace" font-size="8" fill="#6b7280">L-07</text>
<text x="314" y="266" font-size="11" font-weight="600" fill="#111827">Lišta 3</text>
<rect x="422" y="242" width="32" height="13" fill="white" stroke="#1e3a8a" stroke-width="1" rx="2" ry="2"/>
<text x="438.0" y="251.5" text-anchor="middle" font-family="sans-serif" font-size="8" font-weight="700" fill="#1e3a8a">220V</text>
<rect x="304" y="282" width="156" height="36" fill="#e9d5ff" stroke="#374151" stroke-width="1" rx="14" ry="14"/>
<text x="314" y="295" font-family="monospace" font-size="8" fill="#6b7280">L-10</text>
<text x="314" y="310" font-size="11" font-weight="600" fill="#111827">Obývák strop</text>
<rect x="422" y="286" width="32" height="13" fill="white" stroke="#1e3a8a" stroke-width="1" rx="2" ry="2"/>
<text x="438.0" y="295.5" text-anchor="middle" font-family="sans-serif" font-size="8" font-weight="700" fill="#1e3a8a">220V</text>
<rect x="304" y="326" width="156" height="36" fill="#dcfce7" stroke="#374151" stroke-width="1" rx="14" ry="14"/>
<text x="314" y="339" font-family="monospace" font-size="8" fill="#6b7280">L-12</text>
<text x="314" y="354" font-size="11" font-weight="600" fill="#111827">LED strop obývák</text>
<rect x="422" y="330" width="32" height="13" fill="white" stroke="#047857" stroke-width="1" rx="2" ry="2"/>
<text x="438.0" y="339.5" text-anchor="middle" font-family="sans-serif" font-size="8" font-weight="700" fill="#047857">24V</text>
<rect x="606" y="90" width="316" height="112" fill="#fefefe" stroke="#6b7280" stroke-width="1.5" stroke-dasharray="4,3" rx="6" ry="6"/>
<text x="622" y="120" font-size="16" font-weight="700" fill="#111827">Schodiště</text>
<text x="650" y="143" font-size="10" font-style="italic" fill="#6b7280">Svítidla</text>
<rect x="650" y="150" width="156" height="36" fill="#dbeafe" stroke="#374151" stroke-width="1" rx="14" ry="14"/>
<text x="660" y="163" font-family="monospace" font-size="8" fill="#6b7280">L-01</text>
<text x="660" y="178" font-size="11" font-weight="600" fill="#111827">Schodiště svítidlo</text>
<rect x="768" y="154" width="32" height="13" fill="white" stroke="#1e3a8a" stroke-width="1" rx="2" ry="2"/>
<text x="784.0" y="163.5" text-anchor="middle" font-family="sans-serif" font-size="8" font-weight="700" fill="#1e3a8a">220V</text>
<rect x="952" y="90" width="742" height="208" fill="#fefefe" stroke="#6b7280" stroke-width="1.5" stroke-dasharray="4,3" rx="6" ry="6"/>
<text x="968" y="120" font-size="16" font-weight="700" fill="#111827">Horní předsíň</text>
<text x="968" y="144" font-size="11" font-style="italic" fill="#6b7280">U schodů</text>
<rect x="968" y="160" width="248" height="122" fill="#f9fafb" stroke="#374151" stroke-width="2" rx="8" ry="8"/>
<rect x="978" y="188" width="110" height="84" fill="#dbeafe"/>
<rect x="978" y="188" width="110" height="84" fill="none" stroke="#374151" stroke-width="1.5"/>
<rect x="992" y="200" width="82" height="40" fill="white" stroke="#374151" stroke-width="1" rx="3" ry="3"/>
<text x="1033.0" y="253" text-anchor="middle" font-family="sans-serif" font-size="11" font-weight="600" fill="#111827">Schodiště</text>
<text x="1033.0" y="267" text-anchor="middle" font-family="monospace" font-size="9" fill="#6b7280">L-01</text>
<rect x="1052" y="192" width="32" height="13" fill="white" stroke="#1e3a8a" stroke-width="1" rx="2" ry="2"/>
<text x="1068.0" y="201.5" text-anchor="middle" font-family="sans-serif" font-size="8" font-weight="700" fill="#1e3a8a">220V</text>
<rect x="1096" y="188" width="110" height="84" fill="#dbeafe"/>
<rect x="1096" y="188" width="110" height="84" fill="none" stroke="#374151" stroke-width="1.5"/>
<rect x="1110" y="200" width="82" height="40" fill="white" stroke="#374151" stroke-width="1" rx="3" ry="3"/>
<text x="1151.0" y="253" text-anchor="middle" font-family="sans-serif" font-size="11" font-weight="600" fill="#111827">Horní předsíň lustr</text>
<text x="1151.0" y="267" text-anchor="middle" font-family="monospace" font-size="9" fill="#6b7280">L-03</text>
<rect x="1170" y="192" width="32" height="13" fill="white" stroke="#1e3a8a" stroke-width="1" rx="2" ry="2"/>
<text x="1186.0" y="201.5" text-anchor="middle" font-family="sans-serif" font-size="8" font-weight="700" fill="#1e3a8a">220V</text>
<text x="978" y="180" font-family="monospace" font-size="9" fill="#6b7280">P-HP</text>
<text x="1264" y="144" font-size="11" font-style="italic" fill="#6b7280">U pokoje</text>
<rect x="1264" y="160" width="130" height="122" fill="#f9fafb" stroke="#374151" stroke-width="2" rx="8" ry="8"/>
<rect x="1274" y="188" width="110" height="84" fill="#dbeafe"/>
<rect x="1274" y="188" width="110" height="84" fill="none" stroke="#374151" stroke-width="1.5"/>
<rect x="1288" y="200" width="82" height="40" fill="white" stroke="#374151" stroke-width="1" rx="3" ry="3"/>
<text x="1329.0" y="253" text-anchor="middle" font-family="sans-serif" font-size="11" font-weight="600" fill="#111827">Horní předsíň lustr</text>
<text x="1329.0" y="267" text-anchor="middle" font-family="monospace" font-size="9" fill="#6b7280">L-03</text>
<rect x="1348" y="192" width="32" height="13" fill="white" stroke="#1e3a8a" stroke-width="1" rx="2" ry="2"/>
<text x="1364.0" y="201.5" text-anchor="middle" font-family="sans-serif" font-size="8" font-weight="700" fill="#1e3a8a">220V</text>
<text x="1274" y="180" font-family="monospace" font-size="9" fill="#6b7280">P-CP</text>
<text x="1422" y="143" font-size="10" font-style="italic" fill="#6b7280">Svítidla</text>
<rect x="1422" y="150" width="156" height="36" fill="#dbeafe" stroke="#374151" stroke-width="1" rx="14" ry="14"/>
<text x="1432" y="163" font-family="monospace" font-size="8" fill="#6b7280">L-03</text>
<text x="1432" y="178" font-size="11" font-weight="600" fill="#111827">Lustr horní předsíň</text>
<rect x="1540" y="154" width="32" height="13" fill="white" stroke="#1e3a8a" stroke-width="1" rx="2" ry="2"/>
<text x="1556.0" y="163.5" text-anchor="middle" font-family="sans-serif" font-size="8" font-weight="700" fill="#1e3a8a">220V</text>
<rect x="20" y="696" width="734" height="300" fill="#fefefe" stroke="#6b7280" stroke-width="1.5" stroke-dasharray="4,3" rx="6" ry="6"/>
<text x="36" y="726" font-size="16" font-weight="700" fill="#111827">Dolní předsíň</text>
<text x="36" y="750" font-size="11" font-style="italic" fill="#6b7280">U pracovny</text>
<rect x="36" y="766" width="130" height="214" fill="#f9fafb" stroke="#374151" stroke-width="2" rx="8" ry="8"/>
<rect x="46.0" y="794" width="110" height="84" fill="#fef3c7"/>
<rect x="46.0" y="794" width="110" height="84" fill="none" stroke="#374151" stroke-width="1.5"/>
<rect x="60.0" y="806" width="82" height="40" fill="white" stroke="#374151" stroke-width="1" rx="3" ry="3"/>
<text x="101.0" y="859" text-anchor="middle" font-family="sans-serif" font-size="11" font-weight="600" fill="#111827">LED pásek</text>
<text x="101.0" y="873" text-anchor="middle" font-family="monospace" font-size="9" fill="#6b7280">L-02</text>
<rect x="120.0" y="798" width="32" height="13" fill="white" stroke="#1e3a8a" stroke-width="1" rx="2" ry="2"/>
<text x="136.0" y="807.5" text-anchor="middle" font-family="sans-serif" font-size="8" font-weight="700" fill="#1e3a8a">220V</text>
<rect x="46.0" y="886" width="110" height="84" fill="#e9d5ff"/>
<rect x="46.0" y="886" width="110" height="84" fill="none" stroke="#374151" stroke-width="1.5"/>
<rect x="60.0" y="898" width="82" height="40" fill="white" stroke="#374151" stroke-width="1" rx="3" ry="3"/>
<text x="101.0" y="951" text-anchor="middle" font-family="sans-serif" font-size="11" font-weight="600" fill="#111827">Předsíň strop</text>
<text x="101.0" y="965" text-anchor="middle" font-family="monospace" font-size="9" fill="#6b7280">L-09</text>
<rect x="120.0" y="890" width="32" height="13" fill="white" stroke="#1e3a8a" stroke-width="1" rx="2" ry="2"/>
<text x="136.0" y="899.5" text-anchor="middle" font-family="sans-serif" font-size="8" font-weight="700" fill="#1e3a8a">220V</text>
<text x="46" y="786" font-family="monospace" font-size="9" fill="#6b7280">P-DP-F</text>
<text x="214" y="750" font-size="11" font-style="italic" fill="#6b7280">U dveří</text>
<rect x="214" y="766" width="240" height="122" fill="#f9fafb" stroke="#374151" stroke-width="2" rx="8" ry="8"/>
<rect x="224" y="794" width="110" height="84" fill="#fef3c7"/>
<rect x="334" y="794" width="110" height="84" fill="#e9d5ff"/>
<rect x="224" y="794" width="220" height="84" fill="none" stroke="#374151" stroke-width="1.5"/>
<line x1="334" y1="800" x2="334" y2="872" stroke="#374151" stroke-width="1" stroke-dasharray="3,3"/>
<rect x="238" y="806" width="82" height="40" fill="white" stroke="#374151" stroke-width="1" rx="3" ry="3"/>
<text x="279.0" y="859" text-anchor="middle" font-family="sans-serif" font-size="11" font-weight="600" fill="#111827">LED pásek</text>
<text x="279.0" y="873" text-anchor="middle" font-family="monospace" font-size="9" fill="#6b7280">L-02</text>
<rect x="298" y="798" width="32" height="13" fill="white" stroke="#1e3a8a" stroke-width="1" rx="2" ry="2"/>
<text x="314.0" y="807.5" text-anchor="middle" font-family="sans-serif" font-size="8" font-weight="700" fill="#1e3a8a">220V</text>
<rect x="348" y="806" width="82" height="40" fill="white" stroke="#374151" stroke-width="1" rx="3" ry="3"/>
<text x="389.0" y="859" text-anchor="middle" font-family="sans-serif" font-size="11" font-weight="600" fill="#111827">Předsíň strop</text>
<text x="389.0" y="873" text-anchor="middle" font-family="monospace" font-size="9" fill="#6b7280">L-09</text>
<rect x="408" y="798" width="32" height="13" fill="white" stroke="#1e3a8a" stroke-width="1" rx="2" ry="2"/>
<text x="424.0" y="807.5" text-anchor="middle" font-family="sans-serif" font-size="8" font-weight="700" fill="#1e3a8a">220V</text>
<text x="224" y="786" font-family="monospace" font-size="9" fill="#6b7280">P-DP-G</text>
<text x="482" y="749" font-size="10" font-style="italic" fill="#6b7280">Svítidla</text>
<rect x="482" y="756" width="156" height="36" fill="#fef3c7" stroke="#374151" stroke-width="1" rx="14" ry="14"/>
<text x="492" y="769" font-family="monospace" font-size="8" fill="#6b7280">L-02</text>
<text x="492" y="784" font-size="11" font-weight="600" fill="#111827">LED pásek dolní předsíň</text>
<rect x="600" y="760" width="32" height="13" fill="white" stroke="#1e3a8a" stroke-width="1" rx="2" ry="2"/>
<text x="616.0" y="769.5" text-anchor="middle" font-family="sans-serif" font-size="8" font-weight="700" fill="#1e3a8a">220V</text>
<rect x="482" y="800" width="156" height="36" fill="#e9d5ff" stroke="#374151" stroke-width="1" rx="14" ry="14"/>
<text x="492" y="813" font-family="monospace" font-size="8" fill="#6b7280">L-09</text>
<text x="492" y="828" font-size="11" font-weight="600" fill="#111827">Předsíň strop</text>
<rect x="600" y="804" width="32" height="13" fill="white" stroke="#1e3a8a" stroke-width="1" rx="2" ry="2"/>
<text x="616.0" y="813.5" text-anchor="middle" font-family="sans-serif" font-size="8" font-weight="700" fill="#1e3a8a">220V</text>
<rect x="784" y="696" width="980" height="208" fill="#fefefe" stroke="#6b7280" stroke-width="1.5" stroke-dasharray="4,3" rx="6" ry="6"/>
<text x="800" y="726" font-size="16" font-weight="700" fill="#111827">Kuchyň</text>
<rect x="800" y="766" width="664" height="122" fill="#f9fafb" stroke="#374151" stroke-width="2" rx="8" ry="8"/>
<rect x="810" y="794" width="90" height="84" fill="#f3f4f6" stroke="#374151" stroke-width="1.5"/>
<circle cx="855.0" cy="830.0" r="22" fill="white" stroke="#374151" stroke-width="1.5"/>
<circle cx="848.0" cy="830.0" r="2.5" fill="#374151"/>
<circle cx="862.0" cy="830.0" r="2.5" fill="#374151"/>
<text x="855.0" y="870" text-anchor="middle" font-family="sans-serif" font-size="11" fill="#111827">Z</text>
<rect x="864" y="798" width="32" height="13" fill="white" stroke="#1e3a8a" stroke-width="1" rx="2" ry="2"/>
<text x="880.0" y="807.5" text-anchor="middle" font-family="sans-serif" font-size="8" font-weight="700" fill="#1e3a8a">220V</text>
<rect x="908" y="794" width="90" height="84" fill="#f3f4f6" stroke="#374151" stroke-width="1.5"/>
<circle cx="953.0" cy="830.0" r="22" fill="white" stroke="#374151" stroke-width="1.5"/>
<circle cx="946.0" cy="830.0" r="2.5" fill="#374151"/>
<circle cx="960.0" cy="830.0" r="2.5" fill="#374151"/>
<text x="953.0" y="870" text-anchor="middle" font-family="sans-serif" font-size="11" fill="#111827">Z</text>
<rect x="962" y="798" width="32" height="13" fill="white" stroke="#1e3a8a" stroke-width="1" rx="2" ry="2"/>
<text x="978.0" y="807.5" text-anchor="middle" font-family="sans-serif" font-size="8" font-weight="700" fill="#1e3a8a">220V</text>
<rect x="1006" y="794" width="110" height="84" fill="#dbeafe"/>
<rect x="1116" y="794" width="110" height="84" fill="#dcfce7"/>
<rect x="1006" y="794" width="220" height="84" fill="none" stroke="#374151" stroke-width="1.5"/>
<line x1="1116" y1="800" x2="1116" y2="872" stroke="#374151" stroke-width="1" stroke-dasharray="3,3"/>
<rect x="1020" y="806" width="82" height="40" fill="white" stroke="#374151" stroke-width="1" rx="3" ry="3"/>
<text x="1061.0" y="859" text-anchor="middle" font-family="sans-serif" font-size="11" font-weight="600" fill="#111827">Lišta 3</text>
<text x="1061.0" y="873" text-anchor="middle" font-family="monospace" font-size="9" fill="#6b7280">L-07</text>
<rect x="1080" y="798" width="32" height="13" fill="white" stroke="#1e3a8a" stroke-width="1" rx="2" ry="2"/>
<text x="1096.0" y="807.5" text-anchor="middle" font-family="sans-serif" font-size="8" font-weight="700" fill="#1e3a8a">220V</text>
<rect x="1130" y="806" width="82" height="40" fill="white" stroke="#374151" stroke-width="1" rx="3" ry="3"/>
<text x="1171.0" y="859" text-anchor="middle" font-family="sans-serif" font-size="11" font-weight="600" fill="#111827">LED digestoř</text>
<text x="1171.0" y="873" text-anchor="middle" font-family="monospace" font-size="9" fill="#6b7280">L-16</text>
<rect x="1190" y="798" width="32" height="13" fill="white" stroke="#1e3a8a" stroke-width="1" rx="2" ry="2"/>
<text x="1206.0" y="807.5" text-anchor="middle" font-family="sans-serif" font-size="8" font-weight="700" fill="#1e3a8a">220V</text>
<rect x="1129.0" y="831" width="84" height="13" fill="#fef3c7" stroke="#d97706" stroke-width="1" rx="3" ry="3"/>
<text x="1171.0" y="841" text-anchor="middle" font-family="sans-serif" font-size="9" font-weight="700" fill="#92400e">↯ relé 220→24V</text>
<rect x="1234" y="794" width="110" height="84" fill="#dcfce7"/>
<rect x="1344" y="794" width="110" height="84" fill="#dcfce7"/>
<rect x="1234" y="794" width="220" height="84" fill="none" stroke="#374151" stroke-width="1.5"/>
<line x1="1344" y1="800" x2="1344" y2="872" stroke="#374151" stroke-width="1" stroke-dasharray="3,3"/>
<rect x="1248" y="806" width="82" height="40" fill="white" stroke="#374151" stroke-width="1" rx="3" ry="3"/>
<text x="1289.0" y="859" text-anchor="middle" font-family="sans-serif" font-size="11" font-weight="600" fill="#111827">LED A</text>
<text x="1289.0" y="873" text-anchor="middle" font-family="monospace" font-size="9" fill="#6b7280">L-14</text>
<rect x="1308" y="798" width="32" height="13" fill="white" stroke="#047857" stroke-width="1" rx="2" ry="2"/>
<text x="1324.0" y="807.5" text-anchor="middle" font-family="sans-serif" font-size="8" font-weight="700" fill="#047857">24V</text>
<rect x="1358" y="806" width="82" height="40" fill="white" stroke="#374151" stroke-width="1" rx="3" ry="3"/>
<text x="1399.0" y="859" text-anchor="middle" font-family="sans-serif" font-size="11" font-weight="600" fill="#111827">LED B</text>
<text x="1399.0" y="873" text-anchor="middle" font-family="monospace" font-size="9" fill="#6b7280">L-15</text>
<rect x="1418" y="798" width="32" height="13" fill="white" stroke="#047857" stroke-width="1" rx="2" ry="2"/>
<text x="1434.0" y="807.5" text-anchor="middle" font-family="sans-serif" font-size="8" font-weight="700" fill="#047857">24V</text>
<text x="810" y="786" font-family="monospace" font-size="9" fill="#6b7280">P-KU-AFTER</text>
<text x="1492" y="749" font-size="10" font-style="italic" fill="#6b7280">Svítidla</text>
<rect x="1492" y="756" width="156" height="36" fill="#dcfce7" stroke="#374151" stroke-width="1" rx="14" ry="14"/>
<text x="1502" y="769" font-family="monospace" font-size="8" fill="#6b7280">L-14</text>
<text x="1502" y="784" font-size="11" font-weight="600" fill="#111827">LED kuchyň A</text>
<rect x="1610" y="760" width="32" height="13" fill="white" stroke="#047857" stroke-width="1" rx="2" ry="2"/>
<text x="1626.0" y="769.5" text-anchor="middle" font-family="sans-serif" font-size="8" font-weight="700" fill="#047857">24V</text>
<rect x="1492" y="800" width="156" height="36" fill="#dcfce7" stroke="#374151" stroke-width="1" rx="14" ry="14"/>
<text x="1502" y="813" font-family="monospace" font-size="8" fill="#6b7280">L-15</text>
<text x="1502" y="828" font-size="11" font-weight="600" fill="#111827">LED kuchyň B</text>
<rect x="1610" y="804" width="32" height="13" fill="white" stroke="#047857" stroke-width="1" rx="2" ry="2"/>
<text x="1626.0" y="813.5" text-anchor="middle" font-family="sans-serif" font-size="8" font-weight="700" fill="#047857">24V</text>
<rect x="1492" y="844" width="156" height="36" fill="#dcfce7" stroke="#374151" stroke-width="1" rx="14" ry="14"/>
<text x="1502" y="857" font-family="monospace" font-size="8" fill="#6b7280">L-16</text>
<text x="1502" y="872" font-size="11" font-weight="600" fill="#111827">LED digestoř</text>
<rect x="1610" y="848" width="32" height="13" fill="white" stroke="#047857" stroke-width="1" rx="2" ry="2"/>
<text x="1626.0" y="857.5" text-anchor="middle" font-family="sans-serif" font-size="8" font-weight="700" fill="#047857">24V</text>
<rect x="20" y="1026" width="564" height="208" fill="#fefefe" stroke="#6b7280" stroke-width="1.5" stroke-dasharray="4,3" rx="6" ry="6"/>
<text x="36" y="1056" font-size="16" font-weight="700" fill="#111827">Jídelna</text>
<rect x="36" y="1096" width="248" height="122" fill="#f9fafb" stroke="#374151" stroke-width="2" rx="8" ry="8"/>
<rect x="46" y="1124" width="110" height="84" fill="#dcfce7"/>
<rect x="46" y="1124" width="110" height="84" fill="none" stroke="#374151" stroke-width="1.5"/>
<rect x="60" y="1136" width="82" height="40" fill="white" stroke="#374151" stroke-width="1" rx="3" ry="3"/>
<text x="101.0" y="1189" text-anchor="middle" font-family="sans-serif" font-size="11" font-weight="600" fill="#111827">LED</text>
<text x="101.0" y="1203" text-anchor="middle" font-family="monospace" font-size="9" fill="#6b7280">L-13</text>
<rect x="120" y="1128" width="32" height="13" fill="white" stroke="#047857" stroke-width="1" rx="2" ry="2"/>
<text x="136.0" y="1137.5" text-anchor="middle" font-family="sans-serif" font-size="8" font-weight="700" fill="#047857">24V</text>
<rect x="164" y="1124" width="110" height="84" fill="#e9d5ff"/>
<rect x="164" y="1124" width="110" height="84" fill="none" stroke="#374151" stroke-width="1.5"/>
<rect x="178" y="1136" width="82" height="40" fill="white" stroke="#374151" stroke-width="1" rx="3" ry="3"/>
<text x="219.0" y="1189" text-anchor="middle" font-family="sans-serif" font-size="11" font-weight="600" fill="#111827">Lustr</text>
<text x="219.0" y="1203" text-anchor="middle" font-family="monospace" font-size="9" fill="#6b7280">L-04</text>
<rect x="238" y="1128" width="32" height="13" fill="white" stroke="#1e3a8a" stroke-width="1" rx="2" ry="2"/>
<text x="254.0" y="1137.5" text-anchor="middle" font-family="sans-serif" font-size="8" font-weight="700" fill="#1e3a8a">220V</text>
<text x="46" y="1116" font-family="monospace" font-size="9" fill="#6b7280">P-JI</text>
<text x="312" y="1079" font-size="10" font-style="italic" fill="#6b7280">Svítidla</text>
<rect x="312" y="1086" width="156" height="36" fill="#e9d5ff" stroke="#374151" stroke-width="1" rx="14" ry="14"/>
<text x="322" y="1099" font-family="monospace" font-size="8" fill="#6b7280">L-04</text>
<text x="322" y="1114" font-size="11" font-weight="600" fill="#111827">Lustr jídelna</text>
<rect x="430" y="1090" width="32" height="13" fill="white" stroke="#1e3a8a" stroke-width="1" rx="2" ry="2"/>
<text x="446.0" y="1099.5" text-anchor="middle" font-family="sans-serif" font-size="8" font-weight="700" fill="#1e3a8a">220V</text>
<rect x="312" y="1130" width="156" height="36" fill="#dcfce7" stroke="#374151" stroke-width="1" rx="14" ry="14"/>
<text x="322" y="1143" font-family="monospace" font-size="8" fill="#6b7280">L-13</text>
<text x="322" y="1158" font-size="11" font-weight="600" fill="#111827">LED 24V jídelna</text>
<rect x="430" y="1134" width="32" height="13" fill="white" stroke="#047857" stroke-width="1" rx="2" ry="2"/>
<text x="446.0" y="1143.5" text-anchor="middle" font-family="sans-serif" font-size="8" font-weight="700" fill="#047857">24V</text>
<path d="M 156.0 230.0 C 403.0 230.0, 403.0 168.0, 650 168.0" fill="none" stroke="#dc2626" stroke-width="1.5" opacity="0.75"/>
<circle cx="156.0" cy="230.0" r="2.5" fill="#dc2626"/>
<circle cx="650" cy="168.0" r="2.5" fill="#dc2626"/>
<path d="M 101.0 322.0 C 291.5 322.0, 291.5 818.0, 482 818.0" fill="none" stroke="#be185d" stroke-width="1.5" opacity="0.75"/>
<circle cx="101.0" cy="322.0" r="2.5" fill="#be185d"/>
<circle cx="482" cy="818.0" r="2.5" fill="#be185d"/>
<path d="M 211.0 322.0 C 257.5 322.0, 257.5 300.0, 304 300.0" fill="none" stroke="#dc2626" stroke-width="1.5" opacity="0.75"/>
<circle cx="211.0" cy="322.0" r="2.5" fill="#dc2626"/>
<circle cx="304" cy="300.0" r="2.5" fill="#dc2626"/>
<path d="M 156.0 414.0 C 230.0 414.0, 230.0 344.0, 304 344.0" fill="none" stroke="#2563eb" stroke-width="1.5" opacity="0.75"/>
<circle cx="156.0" cy="414.0" r="2.5" fill="#2563eb"/>
<circle cx="304" cy="344.0" r="2.5" fill="#2563eb"/>
<path d="M 101.0 506.0 C 202.5 506.0, 202.5 168.0, 304 168.0" fill="none" stroke="#ea580c" stroke-width="1.5" opacity="0.75"/>
<circle cx="101.0" cy="506.0" r="2.5" fill="#ea580c"/>
<circle cx="304" cy="168.0" r="2.5" fill="#ea580c"/>
<path d="M 211.0 506.0 C 257.5 506.0, 257.5 212.0, 304 212.0" fill="none" stroke="#0891b2" stroke-width="1.5" opacity="0.75"/>
<circle cx="211.0" cy="506.0" r="2.5" fill="#0891b2"/>
<circle cx="304" cy="212.0" r="2.5" fill="#0891b2"/>
<path d="M 101.0 598.0 C 202.5 598.0, 202.5 256.0, 304 256.0" fill="none" stroke="#ca8a04" stroke-width="1.5" opacity="0.75"/>
<circle cx="101.0" cy="598.0" r="2.5" fill="#ca8a04"/>
<circle cx="304" cy="256.0" r="2.5" fill="#ca8a04"/>
<path d="M 211.0 598.0 C 261.5 598.0, 261.5 1104.0, 312 1104.0" fill="none" stroke="#c026d3" stroke-width="1.5" opacity="0.75"/>
<circle cx="211.0" cy="598.0" r="2.5" fill="#c026d3"/>
<circle cx="312" cy="1104.0" r="2.5" fill="#c026d3"/>
<path d="M 101.0 836.0 C 291.5 836.0, 291.5 774.0, 482 774.0" fill="none" stroke="#2563eb" stroke-width="1.5" opacity="0.75"/>
<circle cx="101.0" cy="836.0" r="2.5" fill="#2563eb"/>
<circle cx="482" cy="774.0" r="2.5" fill="#2563eb"/>
<path d="M 101.0 928.0 C 291.5 928.0, 291.5 818.0, 482 818.0" fill="none" stroke="#be185d" stroke-width="1.5" opacity="0.75"/>
<circle cx="101.0" cy="928.0" r="2.5" fill="#be185d"/>
<circle cx="482" cy="818.0" r="2.5" fill="#be185d"/>
<path d="M 279.0 836.0 C 380.5 836.0, 380.5 774.0, 482 774.0" fill="none" stroke="#2563eb" stroke-width="1.5" opacity="0.75"/>
<circle cx="279.0" cy="836.0" r="2.5" fill="#2563eb"/>
<circle cx="482" cy="774.0" r="2.5" fill="#2563eb"/>
<path d="M 389.0 836.0 C 435.5 836.0, 435.5 818.0, 482 818.0" fill="none" stroke="#be185d" stroke-width="1.5" opacity="0.75"/>
<circle cx="389.0" cy="836.0" r="2.5" fill="#be185d"/>
<circle cx="482" cy="818.0" r="2.5" fill="#be185d"/>
<path d="M 1033.0 230.0 C 841.5 230.0, 841.5 168.0, 650 168.0" fill="none" stroke="#dc2626" stroke-width="1.5" opacity="0.75"/>
<circle cx="1033.0" cy="230.0" r="2.5" fill="#dc2626"/>
<circle cx="650" cy="168.0" r="2.5" fill="#dc2626"/>
<path d="M 1151.0 230.0 C 1286.5 230.0, 1286.5 168.0, 1422 168.0" fill="none" stroke="#16a34a" stroke-width="1.5" opacity="0.75"/>
<circle cx="1151.0" cy="230.0" r="2.5" fill="#16a34a"/>
<circle cx="1422" cy="168.0" r="2.5" fill="#16a34a"/>
<path d="M 1329.0 230.0 C 1375.5 230.0, 1375.5 168.0, 1422 168.0" fill="none" stroke="#16a34a" stroke-width="1.5" opacity="0.75"/>
<circle cx="1329.0" cy="230.0" r="2.5" fill="#16a34a"/>
<circle cx="1422" cy="168.0" r="2.5" fill="#16a34a"/>
<path d="M 101.0 1166.0 C 206.5 1166.0, 206.5 1148.0, 312 1148.0" fill="none" stroke="#16a34a" stroke-width="1.5" opacity="0.75"/>
<circle cx="101.0" cy="1166.0" r="2.5" fill="#16a34a"/>
<circle cx="312" cy="1148.0" r="2.5" fill="#16a34a"/>
<path d="M 219.0 1166.0 C 265.5 1166.0, 265.5 1104.0, 312 1104.0" fill="none" stroke="#c026d3" stroke-width="1.5" opacity="0.75"/>
<circle cx="219.0" cy="1166.0" r="2.5" fill="#c026d3"/>
<circle cx="312" cy="1104.0" r="2.5" fill="#c026d3"/>
<path d="M 1061.0 836.0 C 682.5 836.0, 682.5 256.0, 304 256.0" fill="none" stroke="#ca8a04" stroke-width="1.5" opacity="0.75"/>
<circle cx="1061.0" cy="836.0" r="2.5" fill="#ca8a04"/>
<circle cx="304" cy="256.0" r="2.5" fill="#ca8a04"/>
<path d="M 1171.0 836.0 C 1331.5 836.0, 1331.5 862.0, 1492 862.0" fill="none" stroke="#0891b2" stroke-width="1.5" opacity="0.75"/>
<circle cx="1171.0" cy="836.0" r="2.5" fill="#0891b2"/>
<circle cx="1492" cy="862.0" r="2.5" fill="#0891b2"/>
<path d="M 1289.0 836.0 C 1390.5 836.0, 1390.5 774.0, 1492 774.0" fill="none" stroke="#c026d3" stroke-width="1.5" opacity="0.75"/>
<circle cx="1289.0" cy="836.0" r="2.5" fill="#c026d3"/>
<circle cx="1492" cy="774.0" r="2.5" fill="#c026d3"/>
<path d="M 1399.0 836.0 C 1445.5 836.0, 1445.5 818.0, 1492 818.0" fill="none" stroke="#ea580c" stroke-width="1.5" opacity="0.75"/>
<circle cx="1399.0" cy="836.0" r="2.5" fill="#ea580c"/>
<circle cx="1492" cy="818.0" r="2.5" fill="#ea580c"/>
<rect x="105.0" y="192" width="62" height="12" fill="#1f2937" rx="3" ry="3"/>
<text x="136.0" y="201" text-anchor="middle" font-family="monospace" font-size="8" font-weight="700" fill="#f9fafb">Mini SH-01</text>
<rect x="50.0" y="284" width="52" height="12" fill="#1f2937" rx="3" ry="3"/>
<text x="76.0" y="293" text-anchor="middle" font-family="monospace" font-size="8" font-weight="700" fill="#f9fafb">i4 SH-07</text>
<rect x="160.0" y="284" width="52" height="12" fill="#1f2937" rx="3" ry="3"/>
<text x="186.0" y="293" text-anchor="middle" font-family="monospace" font-size="8" font-weight="700" fill="#f9fafb">i4 SH-07</text>
<rect x="50.0" y="468" width="77" height="12" fill="#1f2937" rx="3" ry="3"/>
<text x="88.5" y="477" text-anchor="middle" font-family="monospace" font-size="8" font-weight="700" fill="#f9fafb">2PM [A] SH-05</text>
<rect x="160.0" y="468" width="77" height="12" fill="#1f2937" rx="3" ry="3"/>
<text x="198.5" y="477" text-anchor="middle" font-family="monospace" font-size="8" font-weight="700" fill="#f9fafb">2PM [A] SH-05</text>
<rect x="50.0" y="560" width="77" height="12" fill="#1f2937" rx="3" ry="3"/>
<text x="88.5" y="569" text-anchor="middle" font-family="monospace" font-size="8" font-weight="700" fill="#f9fafb">2PM [A] SH-06</text>
<rect x="160.0" y="560" width="77" height="12" fill="#1f2937" rx="3" ry="3"/>
<text x="198.5" y="569" text-anchor="middle" font-family="monospace" font-size="8" font-weight="700" fill="#f9fafb">2PM [D] SH-06</text>
<rect x="50.0" y="798" width="62" height="12" fill="#1f2937" rx="3" ry="3"/>
<text x="81.0" y="807" text-anchor="middle" font-family="monospace" font-size="8" font-weight="700" fill="#f9fafb">Mini SH-02</text>
<rect x="50.0" y="890" width="52" height="12" fill="#1f2937" rx="3" ry="3"/>
<text x="76.0" y="899" text-anchor="middle" font-family="monospace" font-size="8" font-weight="700" fill="#f9fafb">i4 SH-08</text>
<rect x="1100" y="192" width="62" height="12" fill="#1f2937" rx="3" ry="3"/>
<text x="1131.0" y="201" text-anchor="middle" font-family="monospace" font-size="8" font-weight="700" fill="#f9fafb">Mini SH-03</text>
<rect x="466" y="337.0" width="86" height="14" fill="#1f2937" rx="3" ry="3"/>
<text x="509.0" y="347.0" text-anchor="middle" font-family="monospace" font-size="9" font-weight="700" fill="#f9fafb">RGBW PM SH-E1</text>
<rect x="1654" y="767.0" width="86" height="14" fill="#1f2937" rx="3" ry="3"/>
<text x="1697.0" y="777.0" text-anchor="middle" font-family="monospace" font-size="9" font-weight="700" fill="#f9fafb">RGBW PM SH-E3</text>
<rect x="1654" y="811.0" width="86" height="14" fill="#1f2937" rx="3" ry="3"/>
<text x="1697.0" y="821.0" text-anchor="middle" font-family="monospace" font-size="9" font-weight="700" fill="#f9fafb">RGBW PM SH-E3</text>
<rect x="1654" y="855.0" width="86" height="14" fill="#1f2937" rx="3" ry="3"/>
<text x="1697.0" y="865.0" text-anchor="middle" font-family="monospace" font-size="9" font-weight="700" fill="#f9fafb">RGBW PM SH-E3</text>
<rect x="474" y="1141.0" width="86" height="14" fill="#1f2937" rx="3" ry="3"/>
<text x="517.0" y="1151.0" text-anchor="middle" font-family="monospace" font-size="9" font-weight="700" fill="#f9fafb">RGBW PM SH-E2</text>
<rect x="20" y="1263" width="14" height="14" fill="#e9d5ff" stroke="#374151" stroke-width="1"/>
<text x="40" y="1274" font-size="11" fill="#111827">HUE</text>
<rect x="130" y="1263" width="14" height="14" fill="#dbeafe" stroke="#374151" stroke-width="1"/>
<text x="150" y="1274" font-size="11" fill="#111827">non-HUE</text>
<rect x="240" y="1263" width="14" height="14" fill="#fef3c7" stroke="#374151" stroke-width="1"/>
<text x="260" y="1274" font-size="11" fill="#111827">LED-trafo</text>
<rect x="350" y="1263" width="14" height="14" fill="#dcfce7" stroke="#374151" stroke-width="1"/>
<text x="370" y="1274" font-size="11" fill="#111827">RGBW-PM</text>
<rect x="460" y="1263" width="32" height="13" fill="white" stroke="#1e3a8a" stroke-width="1" rx="2" ry="2"/>
<text x="476.0" y="1272.5" text-anchor="middle" font-family="sans-serif" font-size="8" font-weight="700" fill="#1e3a8a">220V</text>
<text x="498" y="1274" font-size="11" fill="#111827">220V</text>
<rect x="560" y="1263" width="32" height="13" fill="white" stroke="#047857" stroke-width="1" rx="2" ry="2"/>
<text x="576.0" y="1272.5" text-anchor="middle" font-family="sans-serif" font-size="8" font-weight="700" fill="#047857">24V</text>
<text x="598" y="1274" font-size="11" fill="#111827">24V</text>
<rect x="20" y="1299" width="58" height="14" fill="#1f2937" rx="3" ry="3"/>
<text x="49.0" y="1309" text-anchor="middle" font-family="monospace" font-size="9" font-weight="700" fill="#f9fafb">i4 SH-XX</text>
<text x="86" y="1309" font-size="11" fill="#111827">namontovaný Shelly (na buňce = pod vypínačem; u svítidla = u spotřebiče)</text>
<rect x="20" y="1317" width="84" height="13" fill="#fef3c7" stroke="#d97706" stroke-width="1" rx="3" ry="3"/>
<text x="62" y="1327" text-anchor="middle" font-family="sans-serif" font-size="9" font-weight="700" fill="#92400e">↯ relé 220→24V</text>
<text x="112" y="1327" font-size="11" fill="#111827">předsazené relé (konverze 220V signálu na 24V pro Shelly vstup)</text>
</svg>