<svg xmlns="http://www.w3.org/2000/svg" viewBox="0 0 1464 1322" width="1464" height="1322" font-family="sans-serif">
<rect width="100%" height="100%" fill="white"/>
<text x="20" y="36" font-size="24" font-weight="700" fill="#111827">Přehled — svítidla, vypínače a okruhy mezi nimi</text>
<text x="20" y="58" font-size="12" font-style="italic" fill="#6b7280">Každý vypínač je čarou propojen se zařízením, které ovládá. Více čar k jedné pilulce = víc vypínačů na stejný okruh (3-cestné nebo paralelka).</text>
<rect x="20" y="140" width="332" height="716" fill="#fefefe" stroke="#6b7280" stroke-width="1.5" stroke-dasharray="4,3" rx="6" ry="6"/>
<text x="36" y="170" font-size="16" font-weight="700" fill="#111827">Obývák</text>
<text x="36" y="193" font-size="10" font-style="italic" fill="#6b7280">Svítidla</text>
<rect x="36" y="206" width="146" height="30" fill="#dbeafe" stroke="#374151" stroke-width="1" rx="14" ry="14"/>
<text x="46" y="218" font-family="monospace" font-size="8" fill="#6b7280">L-05</text>
<text x="46" y="230" font-size="11" font-weight="600" fill="#111827">Lišta 1</text>
<rect x="144" y="210" width="32" height="13" fill="white" stroke="#1e3a8a" stroke-width="1" rx="2" ry="2"/>
<text x="160.0" y="219.5" text-anchor="middle" font-family="sans-serif" font-size="8" font-weight="700" fill="#1e3a8a">220V</text>
<rect x="190" y="206" width="146" height="30" fill="#dbeafe" stroke="#374151" stroke-width="1" rx="14" ry="14"/>
<text x="200" y="218" font-family="monospace" font-size="8" fill="#6b7280">L-06</text>
<text x="200" y="230" font-size="11" font-weight="600" fill="#111827">Lišta 2</text>
<rect x="298" y="210" width="32" height="13" fill="white" stroke="#1e3a8a" stroke-width="1" rx="2" ry="2"/>
<text x="314.0" y="219.5" text-anchor="middle" font-family="sans-serif" font-size="8" font-weight="700" fill="#1e3a8a">220V</text>
<rect x="36" y="242" width="146" height="30" fill="#dbeafe" stroke="#374151" stroke-width="1" rx="14" ry="14"/>
<text x="46" y="254" font-family="monospace" font-size="8" fill="#6b7280">L-07</text>
<text x="46" y="266" font-size="11" font-weight="600" fill="#111827">Lišta 3</text>
<rect x="144" y="246" width="32" height="13" fill="white" stroke="#1e3a8a" stroke-width="1" rx="2" ry="2"/>
<text x="160.0" y="255.5" text-anchor="middle" font-family="sans-serif" font-size="8" font-weight="700" fill="#1e3a8a">220V</text>
<rect x="190" y="242" width="146" height="30" fill="#ffedd5" stroke="#374151" stroke-width="1" rx="14" ry="14"/>
<text x="200" y="254" font-family="monospace" font-size="8" fill="#6b7280">L-08</text>
<text x="200" y="266" font-size="11" font-weight="600" fill="#111827">Lustr K</text>
<rect x="298" y="246" width="32" height="13" fill="white" stroke="#1e3a8a" stroke-width="1" rx="2" ry="2"/>
<text x="314.0" y="255.5" text-anchor="middle" font-family="sans-serif" font-size="8" font-weight="700" fill="#1e3a8a">220V</text>
<rect x="36" y="278" width="146" height="30" fill="#ffedd5" stroke="#374151" stroke-width="1" rx="14" ry="14"/>
<text x="46" y="290" font-family="monospace" font-size="8" fill="#6b7280">L-10</text>
<text x="46" y="302" font-size="11" font-weight="600" fill="#111827">Obývák strop</text>
<rect x="144" y="282" width="32" height="13" fill="white" stroke="#1e3a8a" stroke-width="1" rx="2" ry="2"/>
<text x="160.0" y="291.5" text-anchor="middle" font-family="sans-serif" font-size="8" font-weight="700" fill="#1e3a8a">220V</text>
<rect x="190" y="278" width="146" height="30" fill="#ffedd5" stroke="#374151" stroke-width="1" rx="14" ry="14"/>
<text x="200" y="290" font-family="monospace" font-size="8" fill="#6b7280">L-11</text>
<text x="200" y="302" font-size="11" font-weight="600" fill="#111827">Předsíň strop (vstup obývák)</text>
<rect x="298" y="282" width="32" height="13" fill="white" stroke="#1e3a8a" stroke-width="1" rx="2" ry="2"/>
<text x="314.0" y="291.5" text-anchor="middle" font-family="sans-serif" font-size="8" font-weight="700" fill="#1e3a8a">220V</text>
<rect x="36" y="314" width="146" height="30" fill="#dbeafe" stroke="#374151" stroke-width="1" rx="14" ry="14"/>
<text x="46" y="326" font-family="monospace" font-size="8" fill="#6b7280">L-12</text>
<text x="46" y="338" font-size="11" font-weight="600" fill="#111827">LED strop obývák</text>
<rect x="144" y="318" width="32" height="13" fill="white" stroke="#047857" stroke-width="1" rx="2" ry="2"/>
<text x="160.0" y="327.5" text-anchor="middle" font-family="sans-serif" font-size="8" font-weight="700" fill="#047857">24V</text>
<text x="36" y="366" font-size="11" font-style="italic" fill="#6b7280">Vstup</text>
<rect x="36" y="382" width="240" height="458" fill="#f9fafb" stroke="#374151" stroke-width="2" rx="8" ry="8"/>
<rect x="101.0" y="410" width="110" height="84" fill="#dbeafe" stroke="#374151" stroke-width="1.5"/>
<rect x="115.0" y="422" width="82" height="40" fill="white" stroke="#374151" stroke-width="1" rx="3" ry="3"/>
<text x="156.0" y="475" text-anchor="middle" font-family="sans-serif" font-size="11" font-weight="600" fill="#111827">Schodiště</text>
<text x="156.0" y="489" text-anchor="middle" font-family="monospace" font-size="9" fill="#6b7280">L-01</text>
<rect x="175.0" y="414" width="32" height="13" fill="white" stroke="#1e3a8a" stroke-width="1" rx="2" ry="2"/>
<text x="191.0" y="423.5" text-anchor="middle" font-family="sans-serif" font-size="8" font-weight="700" fill="#1e3a8a">220V</text>
<rect x="46.0" y="494" width="110" height="84" fill="#ffedd5" stroke="#374151" stroke-width="1.5"/>
<rect x="60.0" y="506" width="82" height="40" fill="white" stroke="#374151" stroke-width="1" rx="3" ry="3"/>
<text x="101.0" y="559" text-anchor="middle" font-family="sans-serif" font-size="11" font-weight="600" fill="#111827">Předsíň strop</text>
<text x="101.0" y="573" text-anchor="middle" font-family="monospace" font-size="9" fill="#6b7280">L-11</text>
<rect x="120.0" y="498" width="32" height="13" fill="white" stroke="#1e3a8a" stroke-width="1" rx="2" ry="2"/>
<text x="136.0" y="507.5" text-anchor="middle" font-family="sans-serif" font-size="8" font-weight="700" fill="#1e3a8a">220V</text>
<rect x="156.0" y="494" width="110" height="84" fill="#ffedd5" stroke="#374151" stroke-width="1.5"/>
<rect x="170.0" y="506" width="82" height="40" fill="white" stroke="#374151" stroke-width="1" rx="3" ry="3"/>
<text x="211.0" y="559" text-anchor="middle" font-family="sans-serif" font-size="11" font-weight="600" fill="#111827">Obývák strop</text>
<text x="211.0" y="573" text-anchor="middle" font-family="monospace" font-size="9" fill="#6b7280">L-10</text>
<rect x="230.0" y="498" width="32" height="13" fill="white" stroke="#1e3a8a" stroke-width="1" rx="2" ry="2"/>
<text x="246.0" y="507.5" text-anchor="middle" font-family="sans-serif" font-size="8" font-weight="700" fill="#1e3a8a">220V</text>
<line x1="156.0" y1="500" x2="156.0" y2="572" stroke="#374151" stroke-width="1" stroke-dasharray="3,3"/>
<rect x="101.0" y="578" width="110" height="84" fill="#dbeafe" stroke="#374151" stroke-width="1.5"/>
<rect x="115.0" y="590" width="82" height="40" fill="white" stroke="#374151" stroke-width="1" rx="3" ry="3"/>
<text x="156.0" y="643" text-anchor="middle" font-family="sans-serif" font-size="11" font-weight="600" fill="#111827">LED strop</text>
<text x="156.0" y="657" text-anchor="middle" font-family="monospace" font-size="9" fill="#6b7280">L-12</text>
<rect x="175.0" y="582" width="32" height="13" fill="white" stroke="#047857" stroke-width="1" rx="2" ry="2"/>
<text x="191.0" y="591.5" text-anchor="middle" font-family="sans-serif" font-size="8" font-weight="700" fill="#047857">24V</text>
<rect x="46.0" y="662" width="110" height="84" fill="#dbeafe" stroke="#374151" stroke-width="1.5"/>
<rect x="60.0" y="674" width="82" height="40" fill="white" stroke="#374151" stroke-width="1" rx="3" ry="3"/>
<text x="101.0" y="727" text-anchor="middle" font-family="sans-serif" font-size="11" font-weight="600" fill="#111827">Lišta 1</text>
<text x="101.0" y="741" text-anchor="middle" font-family="monospace" font-size="9" fill="#6b7280">L-05</text>
<rect x="120.0" y="666" width="32" height="13" fill="white" stroke="#1e3a8a" stroke-width="1" rx="2" ry="2"/>
<text x="136.0" y="675.5" text-anchor="middle" font-family="sans-serif" font-size="8" font-weight="700" fill="#1e3a8a">220V</text>
<rect x="156.0" y="662" width="110" height="84" fill="#dbeafe" stroke="#374151" stroke-width="1.5"/>
<rect x="170.0" y="674" width="82" height="40" fill="white" stroke="#374151" stroke-width="1" rx="3" ry="3"/>
<text x="211.0" y="727" text-anchor="middle" font-family="sans-serif" font-size="11" font-weight="600" fill="#111827">Lišta 2</text>
<text x="211.0" y="741" text-anchor="middle" font-family="monospace" font-size="9" fill="#6b7280">L-06</text>
<rect x="230.0" y="666" width="32" height="13" fill="white" stroke="#1e3a8a" stroke-width="1" rx="2" ry="2"/>
<text x="246.0" y="675.5" text-anchor="middle" font-family="sans-serif" font-size="8" font-weight="700" fill="#1e3a8a">220V</text>
<line x1="156.0" y1="668" x2="156.0" y2="740" stroke="#374151" stroke-width="1" stroke-dasharray="3,3"/>
<rect x="46.0" y="746" width="110" height="84" fill="#dbeafe" stroke="#374151" stroke-width="1.5"/>
<rect x="60.0" y="758" width="82" height="40" fill="white" stroke="#374151" stroke-width="1" rx="3" ry="3"/>
<text x="101.0" y="811" text-anchor="middle" font-family="sans-serif" font-size="11" font-weight="600" fill="#111827">Lišta 3</text>
<text x="101.0" y="825" text-anchor="middle" font-family="monospace" font-size="9" fill="#6b7280">L-07</text>
<rect x="120.0" y="750" width="32" height="13" fill="white" stroke="#1e3a8a" stroke-width="1" rx="2" ry="2"/>
<text x="136.0" y="759.5" text-anchor="middle" font-family="sans-serif" font-size="8" font-weight="700" fill="#1e3a8a">220V</text>
<rect x="156.0" y="746" width="110" height="84" fill="#ffedd5" stroke="#374151" stroke-width="1.5"/>
<rect x="170.0" y="758" width="82" height="40" fill="white" stroke="#374151" stroke-width="1" rx="3" ry="3"/>
<text x="211.0" y="811" text-anchor="middle" font-family="sans-serif" font-size="11" font-weight="600" fill="#111827">Lustr K</text>
<text x="211.0" y="825" text-anchor="middle" font-family="monospace" font-size="9" fill="#6b7280">L-08</text>
<rect x="230.0" y="750" width="32" height="13" fill="white" stroke="#1e3a8a" stroke-width="1" rx="2" ry="2"/>
<text x="246.0" y="759.5" text-anchor="middle" font-family="sans-serif" font-size="8" font-weight="700" fill="#1e3a8a">220V</text>
<line x1="156.0" y1="752" x2="156.0" y2="824" stroke="#374151" stroke-width="1" stroke-dasharray="3,3"/>
<text x="46" y="402" font-family="monospace" font-size="9" fill="#6b7280">P-OB</text>
<rect x="382" y="140" width="210" height="122" fill="#fefefe" stroke="#6b7280" stroke-width="1.5" stroke-dasharray="4,3" rx="6" ry="6"/>
<text x="398" y="170" font-size="16" font-weight="700" fill="#111827">Schodiště</text>
<text x="398" y="193" font-size="10" font-style="italic" fill="#6b7280">Svítidla</text>
<rect x="398" y="206" width="146" height="30" fill="#dbeafe" stroke="#374151" stroke-width="1" rx="14" ry="14"/>
<text x="408" y="218" font-family="monospace" font-size="8" fill="#6b7280">L-01</text>
<text x="408" y="230" font-size="11" font-weight="600" fill="#111827">Schodiště svítidlo</text>
<rect x="506" y="210" width="32" height="13" fill="white" stroke="#1e3a8a" stroke-width="1" rx="2" ry="2"/>
<text x="522.0" y="219.5" text-anchor="middle" font-family="sans-serif" font-size="8" font-weight="700" fill="#1e3a8a">220V</text>
<rect x="622" y="140" width="450" height="272" fill="#fefefe" stroke="#6b7280" stroke-width="1.5" stroke-dasharray="4,3" rx="6" ry="6"/>
<text x="638" y="170" font-size="16" font-weight="700" fill="#111827">Horní předsíň</text>
<text x="638" y="193" font-size="10" font-style="italic" fill="#6b7280">Svítidla</text>
<rect x="638" y="206" width="146" height="30" fill="#dbeafe" stroke="#374151" stroke-width="1" rx="14" ry="14"/>
<text x="648" y="218" font-family="monospace" font-size="8" fill="#6b7280">L-03</text>
<text x="648" y="230" font-size="11" font-weight="600" fill="#111827">Lustr horní předsíň</text>
<rect x="746" y="210" width="32" height="13" fill="white" stroke="#1e3a8a" stroke-width="1" rx="2" ry="2"/>
<text x="762.0" y="219.5" text-anchor="middle" font-family="sans-serif" font-size="8" font-weight="700" fill="#1e3a8a">220V</text>
<text x="638" y="258" font-size="11" font-style="italic" fill="#6b7280">U schodů</text>
<rect x="638" y="274" width="240" height="122" fill="#f9fafb" stroke="#374151" stroke-width="2" rx="8" ry="8"/>
<rect x="648" y="302" width="110" height="84" fill="#dbeafe" stroke="#374151" stroke-width="1.5"/>
<rect x="662" y="314" width="82" height="40" fill="white" stroke="#374151" stroke-width="1" rx="3" ry="3"/>
<text x="703.0" y="367" text-anchor="middle" font-family="sans-serif" font-size="11" font-weight="600" fill="#111827">Schodiště</text>
<text x="703.0" y="381" text-anchor="middle" font-family="monospace" font-size="9" fill="#6b7280">L-01</text>
<rect x="722" y="306" width="32" height="13" fill="white" stroke="#1e3a8a" stroke-width="1" rx="2" ry="2"/>
<text x="738.0" y="315.5" text-anchor="middle" font-family="sans-serif" font-size="8" font-weight="700" fill="#1e3a8a">220V</text>
<rect x="758" y="302" width="110" height="84" fill="#dbeafe" stroke="#374151" stroke-width="1.5"/>
<rect x="772" y="314" width="82" height="40" fill="white" stroke="#374151" stroke-width="1" rx="3" ry="3"/>
<text x="813.0" y="367" text-anchor="middle" font-family="sans-serif" font-size="11" font-weight="600" fill="#111827">Horní předsíň lustr</text>
<text x="813.0" y="381" text-anchor="middle" font-family="monospace" font-size="9" fill="#6b7280">L-03</text>
<rect x="832" y="306" width="32" height="13" fill="white" stroke="#1e3a8a" stroke-width="1" rx="2" ry="2"/>
<text x="848.0" y="315.5" text-anchor="middle" font-family="sans-serif" font-size="8" font-weight="700" fill="#1e3a8a">220V</text>
<text x="648" y="294" font-family="monospace" font-size="9" fill="#6b7280">P-HP</text>
<text x="926" y="258" font-size="11" font-style="italic" fill="#6b7280">Samostatný (paralelka)</text>
<rect x="926" y="274" width="130" height="122" fill="#f9fafb" stroke="#374151" stroke-width="2" rx="8" ry="8"/>
<rect x="936" y="302" width="110" height="84" fill="#dbeafe" stroke="#374151" stroke-width="1.5"/>
<rect x="950" y="314" width="82" height="40" fill="white" stroke="#374151" stroke-width="1" rx="3" ry="3"/>
<text x="991.0" y="367" text-anchor="middle" font-family="sans-serif" font-size="11" font-weight="600" fill="#111827">Horní předsíň lustr</text>
<text x="991.0" y="381" text-anchor="middle" font-family="monospace" font-size="9" fill="#6b7280">L-03</text>
<rect x="1010" y="306" width="32" height="13" fill="white" stroke="#1e3a8a" stroke-width="1" rx="2" ry="2"/>
<text x="1026.0" y="315.5" text-anchor="middle" font-family="sans-serif" font-size="8" font-weight="700" fill="#1e3a8a">220V</text>
<text x="936" y="294" font-family="monospace" font-size="9" fill="#6b7280">P-HP-H3</text>
<rect x="1102" y="140" width="210" height="208" fill="#fefefe" stroke="#6b7280" stroke-width="1.5" stroke-dasharray="4,3" rx="6" ry="6"/>
<text x="1118" y="170" font-size="16" font-weight="700" fill="#111827">Chodba u pokoje</text>
<rect x="1118" y="210" width="130" height="122" fill="#f9fafb" stroke="#374151" stroke-width="2" rx="8" ry="8"/>
<rect x="1128" y="238" width="110" height="84" fill="#dbeafe" stroke="#374151" stroke-width="1.5"/>
<rect x="1142" y="250" width="82" height="40" fill="white" stroke="#374151" stroke-width="1" rx="3" ry="3"/>
<text x="1183.0" y="303" text-anchor="middle" font-family="sans-serif" font-size="11" font-weight="600" fill="#111827">Schodiště</text>
<text x="1183.0" y="317" text-anchor="middle" font-family="monospace" font-size="9" fill="#6b7280">L-01</text>
<rect x="1202" y="242" width="32" height="13" fill="white" stroke="#1e3a8a" stroke-width="1" rx="2" ry="2"/>
<text x="1218.0" y="251.5" text-anchor="middle" font-family="sans-serif" font-size="8" font-weight="700" fill="#1e3a8a">220V</text>
<text x="1128" y="230" font-family="monospace" font-size="9" fill="#6b7280">P-CP</text>
<rect x="20" y="886" width="450" height="356" fill="#fefefe" stroke="#6b7280" stroke-width="1.5" stroke-dasharray="4,3" rx="6" ry="6"/>
<text x="36" y="916" font-size="16" font-weight="700" fill="#111827">Dolní předsíň</text>
<text x="36" y="939" font-size="10" font-style="italic" fill="#6b7280">Svítidla</text>
<rect x="36" y="952" width="146" height="30" fill="#dbeafe" stroke="#374151" stroke-width="1" rx="14" ry="14"/>
<text x="46" y="964" font-family="monospace" font-size="8" fill="#6b7280">L-02</text>
<text x="46" y="976" font-size="11" font-weight="600" fill="#111827">LED pásek dolní předsíň</text>
<rect x="144" y="956" width="32" height="13" fill="white" stroke="#1e3a8a" stroke-width="1" rx="2" ry="2"/>
<text x="160.0" y="965.5" text-anchor="middle" font-family="sans-serif" font-size="8" font-weight="700" fill="#1e3a8a">220V</text>
<rect x="190" y="952" width="146" height="30" fill="#ffedd5" stroke="#374151" stroke-width="1" rx="14" ry="14"/>
<text x="200" y="964" font-family="monospace" font-size="8" fill="#6b7280">L-09</text>
<text x="200" y="976" font-size="11" font-weight="600" fill="#111827">Předsíň strop (dolní)</text>
<rect x="298" y="956" width="32" height="13" fill="white" stroke="#1e3a8a" stroke-width="1" rx="2" ry="2"/>
<text x="314.0" y="965.5" text-anchor="middle" font-family="sans-serif" font-size="8" font-weight="700" fill="#1e3a8a">220V</text>
<text x="36" y="1004" font-size="11" font-style="italic" fill="#6b7280">U pracovny</text>
<rect x="36" y="1020" width="130" height="206" fill="#f9fafb" stroke="#374151" stroke-width="2" rx="8" ry="8"/>
<rect x="46.0" y="1048" width="110" height="84" fill="#dbeafe" stroke="#374151" stroke-width="1.5"/>
<rect x="60.0" y="1060" width="82" height="40" fill="white" stroke="#374151" stroke-width="1" rx="3" ry="3"/>
<text x="101.0" y="1113" text-anchor="middle" font-family="sans-serif" font-size="11" font-weight="600" fill="#111827">LED pásek</text>
<text x="101.0" y="1127" text-anchor="middle" font-family="monospace" font-size="9" fill="#6b7280">L-02</text>
<rect x="120.0" y="1052" width="32" height="13" fill="white" stroke="#1e3a8a" stroke-width="1" rx="2" ry="2"/>
<text x="136.0" y="1061.5" text-anchor="middle" font-family="sans-serif" font-size="8" font-weight="700" fill="#1e3a8a">220V</text>
<rect x="46.0" y="1132" width="110" height="84" fill="#ffedd5" stroke="#374151" stroke-width="1.5"/>
<rect x="60.0" y="1144" width="82" height="40" fill="white" stroke="#374151" stroke-width="1" rx="3" ry="3"/>
<text x="101.0" y="1197" text-anchor="middle" font-family="sans-serif" font-size="11" font-weight="600" fill="#111827">Předsíň strop</text>
<text x="101.0" y="1211" text-anchor="middle" font-family="monospace" font-size="9" fill="#6b7280">L-09</text>
<rect x="120.0" y="1136" width="32" height="13" fill="white" stroke="#1e3a8a" stroke-width="1" rx="2" ry="2"/>
<text x="136.0" y="1145.5" text-anchor="middle" font-family="sans-serif" font-size="8" font-weight="700" fill="#1e3a8a">220V</text>
<text x="46" y="1040" font-family="monospace" font-size="9" fill="#6b7280">P-DP-F</text>
<text x="214" y="1004" font-size="11" font-style="italic" fill="#6b7280">U dveří</text>
<rect x="214" y="1020" width="240" height="122" fill="#f9fafb" stroke="#374151" stroke-width="2" rx="8" ry="8"/>
<rect x="224" y="1048" width="110" height="84" fill="#dbeafe" stroke="#374151" stroke-width="1.5"/>
<rect x="238" y="1060" width="82" height="40" fill="white" stroke="#374151" stroke-width="1" rx="3" ry="3"/>
<text x="279.0" y="1113" text-anchor="middle" font-family="sans-serif" font-size="11" font-weight="600" fill="#111827">LED pásek</text>
<text x="279.0" y="1127" text-anchor="middle" font-family="monospace" font-size="9" fill="#6b7280">L-02</text>
<rect x="298" y="1052" width="32" height="13" fill="white" stroke="#1e3a8a" stroke-width="1" rx="2" ry="2"/>
<text x="314.0" y="1061.5" text-anchor="middle" font-family="sans-serif" font-size="8" font-weight="700" fill="#1e3a8a">220V</text>
<rect x="334" y="1048" width="110" height="84" fill="#ffedd5" stroke="#374151" stroke-width="1.5"/>
<rect x="348" y="1060" width="82" height="40" fill="white" stroke="#374151" stroke-width="1" rx="3" ry="3"/>
<text x="389.0" y="1113" text-anchor="middle" font-family="sans-serif" font-size="11" font-weight="600" fill="#111827">Předsíň strop</text>
<text x="389.0" y="1127" text-anchor="middle" font-family="monospace" font-size="9" fill="#6b7280">L-09</text>
<rect x="408" y="1052" width="32" height="13" fill="white" stroke="#1e3a8a" stroke-width="1" rx="2" ry="2"/>
<text x="424.0" y="1061.5" text-anchor="middle" font-family="sans-serif" font-size="8" font-weight="700" fill="#1e3a8a">220V</text>
<line x1="334" y1="1054" x2="334" y2="1126" stroke="#374151" stroke-width="1" stroke-dasharray="3,3"/>
<text x="224" y="1040" font-family="monospace" font-size="9" fill="#6b7280">P-DP-G</text>
<rect x="500" y="886" width="582" height="272" fill="#fefefe" stroke="#6b7280" stroke-width="1.5" stroke-dasharray="4,3" rx="6" ry="6"/>
<text x="516" y="916" font-size="16" font-weight="700" fill="#111827">Kuchyň</text>
<text x="516" y="939" font-size="10" font-style="italic" fill="#6b7280">Svítidla</text>
<rect x="516" y="952" width="146" height="30" fill="#dbeafe" stroke="#374151" stroke-width="1" rx="14" ry="14"/>
<text x="526" y="964" font-family="monospace" font-size="8" fill="#6b7280">L-14</text>
<text x="526" y="976" font-size="11" font-weight="600" fill="#111827">Kuchyň okruhy</text>
<rect x="516" y="1020" width="550" height="122" fill="#f9fafb" stroke="#374151" stroke-width="2" rx="8" ry="8"/>
<rect x="526" y="1048" width="90" height="84" fill="#f3f4f6" stroke="#374151" stroke-width="1.5"/>
<circle cx="571.0" cy="1084.0" r="22" fill="white" stroke="#374151" stroke-width="1.5"/>
<circle cx="564.0" cy="1084.0" r="2.5" fill="#374151"/>
<circle cx="578.0" cy="1084.0" r="2.5" fill="#374151"/>
<text x="571.0" y="1124" text-anchor="middle" font-family="sans-serif" font-size="11" fill="#111827">Z</text>
<rect x="580" y="1052" width="32" height="13" fill="white" stroke="#1e3a8a" stroke-width="1" rx="2" ry="2"/>
<text x="596.0" y="1061.5" text-anchor="middle" font-family="sans-serif" font-size="8" font-weight="700" fill="#1e3a8a">220V</text>
<rect x="616" y="1048" width="110" height="84" fill="#f3f4f6" stroke="#374151" stroke-width="1.5"/>
<rect x="630" y="1060" width="82" height="40" fill="white" stroke="#374151" stroke-width="1" rx="3" ry="3"/>
<text x="671.0" y="1113" text-anchor="middle" font-family="sans-serif" font-size="11" font-weight="600" fill="#111827">Lišta 3</text>
<rect x="690" y="1052" width="32" height="13" fill="white" stroke="#047857" stroke-width="1" rx="2" ry="2"/>
<text x="706.0" y="1061.5" text-anchor="middle" font-family="sans-serif" font-size="8" font-weight="700" fill="#047857">24V</text>
<rect x="726" y="1048" width="110" height="84" fill="#f3f4f6" stroke="#374151" stroke-width="1.5"/>
<rect x="740" y="1060" width="82" height="40" fill="white" stroke="#374151" stroke-width="1" rx="3" ry="3"/>
<text x="781.0" y="1113" text-anchor="middle" font-family="sans-serif" font-size="11" font-weight="600" fill="#111827">LED A</text>
<rect x="800" y="1052" width="32" height="13" fill="white" stroke="#047857" stroke-width="1" rx="2" ry="2"/>
<text x="816.0" y="1061.5" text-anchor="middle" font-family="sans-serif" font-size="8" font-weight="700" fill="#047857">24V</text>
<rect x="836" y="1048" width="110" height="84" fill="#f3f4f6" stroke="#374151" stroke-width="1.5"/>
<rect x="850" y="1060" width="82" height="40" fill="white" stroke="#374151" stroke-width="1" rx="3" ry="3"/>
<text x="891.0" y="1113" text-anchor="middle" font-family="sans-serif" font-size="11" font-weight="600" fill="#111827">LED B</text>
<rect x="910" y="1052" width="32" height="13" fill="white" stroke="#047857" stroke-width="1" rx="2" ry="2"/>
<text x="926.0" y="1061.5" text-anchor="middle" font-family="sans-serif" font-size="8" font-weight="700" fill="#047857">24V</text>
<line x1="836" y1="1054" x2="836" y2="1126" stroke="#374151" stroke-width="1" stroke-dasharray="3,3"/>
<rect x="946" y="1048" width="110" height="84" fill="#f3f4f6" stroke="#374151" stroke-width="1.5"/>
<rect x="960" y="1060" width="82" height="40" fill="white" stroke="#374151" stroke-width="1" rx="3" ry="3"/>
<text x="1001.0" y="1113" text-anchor="middle" font-family="sans-serif" font-size="11" font-weight="600" fill="#111827">LED digestoř</text>
<rect x="1020" y="1052" width="32" height="13" fill="white" stroke="#047857" stroke-width="1" rx="2" ry="2"/>
<text x="1036.0" y="1061.5" text-anchor="middle" font-family="sans-serif" font-size="8" font-weight="700" fill="#047857">24V</text>
<text x="526" y="1040" font-family="monospace" font-size="9" fill="#6b7280">P-KU</text>
<rect x="1112" y="886" width="332" height="272" fill="#fefefe" stroke="#6b7280" stroke-width="1.5" stroke-dasharray="4,3" rx="6" ry="6"/>
<text x="1128" y="916" font-size="16" font-weight="700" fill="#111827">Jídelna</text>
<text x="1128" y="939" font-size="10" font-style="italic" fill="#6b7280">Svítidla</text>
<rect x="1128" y="952" width="146" height="30" fill="#dbeafe" stroke="#374151" stroke-width="1" rx="14" ry="14"/>
<text x="1138" y="964" font-family="monospace" font-size="8" fill="#6b7280">L-04</text>
<text x="1138" y="976" font-size="11" font-weight="600" fill="#111827">Lustr jídelna</text>
<rect x="1236" y="956" width="32" height="13" fill="white" stroke="#1e3a8a" stroke-width="1" rx="2" ry="2"/>
<text x="1252.0" y="965.5" text-anchor="middle" font-family="sans-serif" font-size="8" font-weight="700" fill="#1e3a8a">220V</text>
<rect x="1282" y="952" width="146" height="30" fill="#dbeafe" stroke="#374151" stroke-width="1" rx="14" ry="14"/>
<text x="1292" y="964" font-family="monospace" font-size="8" fill="#6b7280">L-13</text>
<text x="1292" y="976" font-size="11" font-weight="600" fill="#111827">LED 24V jídelna</text>
<rect x="1390" y="956" width="32" height="13" fill="white" stroke="#047857" stroke-width="1" rx="2" ry="2"/>
<text x="1406.0" y="965.5" text-anchor="middle" font-family="sans-serif" font-size="8" font-weight="700" fill="#047857">24V</text>
<rect x="1128" y="1020" width="240" height="122" fill="#f9fafb" stroke="#374151" stroke-width="2" rx="8" ry="8"/>
<rect x="1138" y="1048" width="110" height="84" fill="#dbeafe" stroke="#374151" stroke-width="1.5"/>
<rect x="1152" y="1060" width="82" height="40" fill="white" stroke="#374151" stroke-width="1" rx="3" ry="3"/>
<text x="1193.0" y="1113" text-anchor="middle" font-family="sans-serif" font-size="11" font-weight="600" fill="#111827">LED</text>
<text x="1193.0" y="1127" text-anchor="middle" font-family="monospace" font-size="9" fill="#6b7280">L-13</text>
<rect x="1212" y="1052" width="32" height="13" fill="white" stroke="#047857" stroke-width="1" rx="2" ry="2"/>
<text x="1228.0" y="1061.5" text-anchor="middle" font-family="sans-serif" font-size="8" font-weight="700" fill="#047857">24V</text>
<rect x="1248" y="1048" width="110" height="84" fill="#dbeafe" stroke="#374151" stroke-width="1.5"/>
<rect x="1262" y="1060" width="82" height="40" fill="white" stroke="#374151" stroke-width="1" rx="3" ry="3"/>
<text x="1303.0" y="1113" text-anchor="middle" font-family="sans-serif" font-size="11" font-weight="600" fill="#111827">Lustr</text>
<text x="1303.0" y="1127" text-anchor="middle" font-family="monospace" font-size="9" fill="#6b7280">L-04</text>
<rect x="1322" y="1052" width="32" height="13" fill="white" stroke="#1e3a8a" stroke-width="1" rx="2" ry="2"/>
<text x="1338.0" y="1061.5" text-anchor="middle" font-family="sans-serif" font-size="8" font-weight="700" fill="#1e3a8a">220V</text>
<line x1="1248" y1="1054" x2="1248" y2="1126" stroke="#374151" stroke-width="1" stroke-dasharray="3,3"/>
<text x="1138" y="1040" font-family="monospace" font-size="9" fill="#6b7280">P-JI</text>
<path d="M 156.0 410 C 156.0 212, 471.0 212, 471.0 236" fill="none" stroke="#dc2626" stroke-width="1.5" opacity="0.7"/>
<circle cx="156.0" cy="410" r="2.5" fill="#dc2626"/>
<circle cx="471.0" cy="236" r="2.5" fill="#dc2626"/>
<path d="M 101.0 494 C 101.0 284, 263.0 284, 263.0 308" fill="none" stroke="#16a34a" stroke-width="1.5" opacity="0.7"/>
<circle cx="101.0" cy="494" r="2.5" fill="#16a34a"/>
<circle cx="263.0" cy="308" r="2.5" fill="#16a34a"/>
<path d="M 211.0 494 C 211.0 284, 109.0 284, 109.0 308" fill="none" stroke="#2563eb" stroke-width="1.5" opacity="0.7"/>
<circle cx="211.0" cy="494" r="2.5" fill="#2563eb"/>
<circle cx="109.0" cy="308" r="2.5" fill="#2563eb"/>
<path d="M 156.0 578 C 156.0 320, 109.0 320, 109.0 344" fill="none" stroke="#c026d3" stroke-width="1.5" opacity="0.7"/>
<circle cx="156.0" cy="578" r="2.5" fill="#c026d3"/>
<circle cx="109.0" cy="344" r="2.5" fill="#c026d3"/>
<path d="M 101.0 662 C 101.0 212, 109.0 212, 109.0 236" fill="none" stroke="#ea580c" stroke-width="1.5" opacity="0.7"/>
<circle cx="101.0" cy="662" r="2.5" fill="#ea580c"/>
<circle cx="109.0" cy="236" r="2.5" fill="#ea580c"/>
<path d="M 211.0 662 C 211.0 212, 263.0 212, 263.0 236" fill="none" stroke="#0891b2" stroke-width="1.5" opacity="0.7"/>
<circle cx="211.0" cy="662" r="2.5" fill="#0891b2"/>
<circle cx="263.0" cy="236" r="2.5" fill="#0891b2"/>
<path d="M 101.0 746 C 101.0 248, 109.0 248, 109.0 272" fill="none" stroke="#ca8a04" stroke-width="1.5" opacity="0.7"/>
<circle cx="101.0" cy="746" r="2.5" fill="#ca8a04"/>
<circle cx="109.0" cy="272" r="2.5" fill="#ca8a04"/>
<path d="M 211.0 746 C 211.0 248, 263.0 248, 263.0 272" fill="none" stroke="#be185d" stroke-width="1.5" opacity="0.7"/>
<circle cx="211.0" cy="746" r="2.5" fill="#be185d"/>
<circle cx="263.0" cy="272" r="2.5" fill="#be185d"/>
<path d="M 101.0 1048 C 101.0 958, 109.0 958, 109.0 982" fill="none" stroke="#2563eb" stroke-width="1.5" opacity="0.7"/>
<circle cx="101.0" cy="1048" r="2.5" fill="#2563eb"/>
<circle cx="109.0" cy="982" r="2.5" fill="#2563eb"/>
<path d="M 101.0 1132 C 101.0 958, 263.0 958, 263.0 982" fill="none" stroke="#dc2626" stroke-width="1.5" opacity="0.7"/>
<circle cx="101.0" cy="1132" r="2.5" fill="#dc2626"/>
<circle cx="263.0" cy="982" r="2.5" fill="#dc2626"/>
<path d="M 279.0 1048 C 279.0 958, 109.0 958, 109.0 982" fill="none" stroke="#2563eb" stroke-width="1.5" opacity="0.7"/>
<circle cx="279.0" cy="1048" r="2.5" fill="#2563eb"/>
<circle cx="109.0" cy="982" r="2.5" fill="#2563eb"/>
<path d="M 389.0 1048 C 389.0 958, 263.0 958, 263.0 982" fill="none" stroke="#dc2626" stroke-width="1.5" opacity="0.7"/>
<circle cx="389.0" cy="1048" r="2.5" fill="#dc2626"/>
<circle cx="263.0" cy="982" r="2.5" fill="#dc2626"/>
<path d="M 703.0 302 C 703.0 212, 471.0 212, 471.0 236" fill="none" stroke="#dc2626" stroke-width="1.5" opacity="0.7"/>
<circle cx="703.0" cy="302" r="2.5" fill="#dc2626"/>
<circle cx="471.0" cy="236" r="2.5" fill="#dc2626"/>
<path d="M 813.0 302 C 813.0 212, 711.0 212, 711.0 236" fill="none" stroke="#16a34a" stroke-width="1.5" opacity="0.7"/>
<circle cx="813.0" cy="302" r="2.5" fill="#16a34a"/>
<circle cx="711.0" cy="236" r="2.5" fill="#16a34a"/>
<path d="M 991.0 302 C 991.0 212, 711.0 212, 711.0 236" fill="none" stroke="#16a34a" stroke-width="1.5" opacity="0.7"/>
<circle cx="991.0" cy="302" r="2.5" fill="#16a34a"/>
<circle cx="711.0" cy="236" r="2.5" fill="#16a34a"/>
<path d="M 1183.0 238 C 1183.0 212, 471.0 212, 471.0 236" fill="none" stroke="#dc2626" stroke-width="1.5" opacity="0.7"/>
<circle cx="1183.0" cy="238" r="2.5" fill="#dc2626"/>
<circle cx="471.0" cy="236" r="2.5" fill="#dc2626"/>
<path d="M 1193.0 1048 C 1193.0 958, 1355.0 958, 1355.0 982" fill="none" stroke="#ea580c" stroke-width="1.5" opacity="0.7"/>
<circle cx="1193.0" cy="1048" r="2.5" fill="#ea580c"/>
<circle cx="1355.0" cy="982" r="2.5" fill="#ea580c"/>
<path d="M 1303.0 1048 C 1303.0 958, 1201.0 958, 1201.0 982" fill="none" stroke="#c026d3" stroke-width="1.5" opacity="0.7"/>
<circle cx="1303.0" cy="1048" r="2.5" fill="#c026d3"/>
<circle cx="1201.0" cy="982" r="2.5" fill="#c026d3"/>
<rect x="20" y="1281" width="14" height="14" fill="#ffedd5" stroke="#374151" stroke-width="1"/>
<text x="40" y="1292" font-size="11" fill="#111827">HUE</text>
<rect x="120" y="1281" width="14" height="14" fill="#dbeafe" stroke="#374151" stroke-width="1"/>
<text x="140" y="1292" font-size="11" fill="#111827">non-HUE</text>
<rect x="220" y="1281" width="32" height="13" fill="white" stroke="#1e3a8a" stroke-width="1" rx="2" ry="2"/>
<text x="236.0" y="1290.5" text-anchor="middle" font-family="sans-serif" font-size="8" font-weight="700" fill="#1e3a8a">220V</text>
<text x="258" y="1292" font-size="11" fill="#111827">220V</text>
<rect x="320" y="1281" width="32" height="13" fill="white" stroke="#047857" stroke-width="1" rx="2" ry="2"/>
<text x="336.0" y="1290.5" text-anchor="middle" font-family="sans-serif" font-size="8" font-weight="700" fill="#047857">24V</text>
<text x="358" y="1292" font-size="11" fill="#111827">24V</text>
</svg>