<svg xmlns="http://www.w3.org/2000/svg" viewBox="0 0 1442 1036" width="1442" height="1036" font-family="sans-serif">
<rect width="100%" height="100%" fill="white"/>
<text x="20" y="36" font-size="24" font-weight="700" fill="#111827">Přehled — svítidla, vypínače a okruhy mezi nimi</text>
<text x="20" y="58" font-size="12" font-style="italic" fill="#6b7280">Každý vypínač je čarou propojen se zařízením, které ovládá. Více čar k jedné pilulce = víc vypínačů na stejný okruh (3-cestné nebo paralelka).</text>
<rect x="20" y="90" width="456" height="544" fill="#fefefe" stroke="#6b7280" stroke-width="1.5" stroke-dasharray="4,3" rx="6" ry="6"/>
<text x="36" y="120" font-size="16" font-weight="700" fill="#111827">Obývák</text>
<text x="36" y="144" font-size="11" font-style="italic" fill="#6b7280">Vstup</text>
<rect x="36" y="160" width="240" height="458" fill="#f9fafb" stroke="#374151" stroke-width="2" rx="8" ry="8"/>
<rect x="101.0" y="188" width="110" height="84" fill="#dbeafe" stroke="#374151" stroke-width="1.5"/>
<rect x="115.0" y="200" width="82" height="40" fill="white" stroke="#374151" stroke-width="1" rx="3" ry="3"/>
<text x="156.0" y="253" text-anchor="middle" font-family="sans-serif" font-size="11" font-weight="600" fill="#111827">Schodiště</text>
<text x="156.0" y="267" text-anchor="middle" font-family="monospace" font-size="9" fill="#6b7280">L-01</text>
<rect x="175.0" y="192" width="32" height="13" fill="white" stroke="#1e3a8a" stroke-width="1" rx="2" ry="2"/>
<text x="191.0" y="201.5" text-anchor="middle" font-family="sans-serif" font-size="8" font-weight="700" fill="#1e3a8a">220V</text>
<rect x="46.0" y="272" width="110" height="84" fill="#ffedd5" stroke="#374151" stroke-width="1.5"/>
<rect x="60.0" y="284" width="82" height="40" fill="white" stroke="#374151" stroke-width="1" rx="3" ry="3"/>
<text x="101.0" y="337" text-anchor="middle" font-family="sans-serif" font-size="11" font-weight="600" fill="#111827">Předsíň strop</text>
<text x="101.0" y="351" text-anchor="middle" font-family="monospace" font-size="9" fill="#6b7280">L-09</text>
<rect x="120.0" y="276" width="32" height="13" fill="white" stroke="#1e3a8a" stroke-width="1" rx="2" ry="2"/>
<text x="136.0" y="285.5" text-anchor="middle" font-family="sans-serif" font-size="8" font-weight="700" fill="#1e3a8a">220V</text>
<rect x="156.0" y="272" width="110" height="84" fill="#ffedd5" stroke="#374151" stroke-width="1.5"/>
<rect x="170.0" y="284" width="82" height="40" fill="white" stroke="#374151" stroke-width="1" rx="3" ry="3"/>
<text x="211.0" y="337" text-anchor="middle" font-family="sans-serif" font-size="11" font-weight="600" fill="#111827">Obývák strop</text>
<text x="211.0" y="351" text-anchor="middle" font-family="monospace" font-size="9" fill="#6b7280">L-10</text>
<rect x="230.0" y="276" width="32" height="13" fill="white" stroke="#1e3a8a" stroke-width="1" rx="2" ry="2"/>
<text x="246.0" y="285.5" text-anchor="middle" font-family="sans-serif" font-size="8" font-weight="700" fill="#1e3a8a">220V</text>
<line x1="156.0" y1="278" x2="156.0" y2="350" stroke="#374151" stroke-width="1" stroke-dasharray="3,3"/>
<rect x="101.0" y="356" width="110" height="84" fill="#dcfce7" stroke="#374151" stroke-width="1.5"/>
<rect x="115.0" y="368" width="82" height="40" fill="white" stroke="#374151" stroke-width="1" rx="3" ry="3"/>
<text x="156.0" y="421" text-anchor="middle" font-family="sans-serif" font-size="11" font-weight="600" fill="#111827">LED strop</text>
<text x="156.0" y="435" text-anchor="middle" font-family="monospace" font-size="9" fill="#6b7280">L-12</text>
<rect x="175.0" y="360" width="32" height="13" fill="white" stroke="#047857" stroke-width="1" rx="2" ry="2"/>
<text x="191.0" y="369.5" text-anchor="middle" font-family="sans-serif" font-size="8" font-weight="700" fill="#047857">24V</text>
<rect x="46.0" y="440" width="110" height="84" fill="#dbeafe" stroke="#374151" stroke-width="1.5"/>
<rect x="60.0" y="452" width="82" height="40" fill="white" stroke="#374151" stroke-width="1" rx="3" ry="3"/>
<text x="101.0" y="505" text-anchor="middle" font-family="sans-serif" font-size="11" font-weight="600" fill="#111827">Lišta 1</text>
<text x="101.0" y="519" text-anchor="middle" font-family="monospace" font-size="9" fill="#6b7280">L-05</text>
<rect x="120.0" y="444" width="32" height="13" fill="white" stroke="#1e3a8a" stroke-width="1" rx="2" ry="2"/>
<text x="136.0" y="453.5" text-anchor="middle" font-family="sans-serif" font-size="8" font-weight="700" fill="#1e3a8a">220V</text>
<rect x="156.0" y="440" width="110" height="84" fill="#dbeafe" stroke="#374151" stroke-width="1.5"/>
<rect x="170.0" y="452" width="82" height="40" fill="white" stroke="#374151" stroke-width="1" rx="3" ry="3"/>
<text x="211.0" y="505" text-anchor="middle" font-family="sans-serif" font-size="11" font-weight="600" fill="#111827">Lišta 2</text>
<text x="211.0" y="519" text-anchor="middle" font-family="monospace" font-size="9" fill="#6b7280">L-06</text>
<rect x="230.0" y="444" width="32" height="13" fill="white" stroke="#1e3a8a" stroke-width="1" rx="2" ry="2"/>
<text x="246.0" y="453.5" text-anchor="middle" font-family="sans-serif" font-size="8" font-weight="700" fill="#1e3a8a">220V</text>
<line x1="156.0" y1="446" x2="156.0" y2="518" stroke="#374151" stroke-width="1" stroke-dasharray="3,3"/>
<rect x="46.0" y="524" width="110" height="84" fill="#dbeafe" stroke="#374151" stroke-width="1.5"/>
<rect x="60.0" y="536" width="82" height="40" fill="white" stroke="#374151" stroke-width="1" rx="3" ry="3"/>
<text x="101.0" y="589" text-anchor="middle" font-family="sans-serif" font-size="11" font-weight="600" fill="#111827">Lišta 3</text>
<text x="101.0" y="603" text-anchor="middle" font-family="monospace" font-size="9" fill="#6b7280">L-07</text>
<rect x="120.0" y="528" width="32" height="13" fill="white" stroke="#1e3a8a" stroke-width="1" rx="2" ry="2"/>
<text x="136.0" y="537.5" text-anchor="middle" font-family="sans-serif" font-size="8" font-weight="700" fill="#1e3a8a">220V</text>
<rect x="156.0" y="524" width="110" height="84" fill="#ffedd5" stroke="#374151" stroke-width="1.5"/>
<rect x="170.0" y="536" width="82" height="40" fill="white" stroke="#374151" stroke-width="1" rx="3" ry="3"/>
<text x="211.0" y="589" text-anchor="middle" font-family="sans-serif" font-size="11" font-weight="600" fill="#111827">Lustr jídelna</text>
<text x="211.0" y="603" text-anchor="middle" font-family="monospace" font-size="9" fill="#6b7280">L-04</text>
<rect x="230.0" y="528" width="32" height="13" fill="white" stroke="#1e3a8a" stroke-width="1" rx="2" ry="2"/>
<text x="246.0" y="537.5" text-anchor="middle" font-family="sans-serif" font-size="8" font-weight="700" fill="#1e3a8a">220V</text>
<line x1="156.0" y1="530" x2="156.0" y2="602" stroke="#374151" stroke-width="1" stroke-dasharray="3,3"/>
<text x="46" y="180" font-family="monospace" font-size="9" fill="#6b7280">P-OB</text>
<text x="304" y="143" font-size="10" font-style="italic" fill="#6b7280">Svítidla</text>
<rect x="304" y="150" width="156" height="36" fill="#dbeafe" stroke="#374151" stroke-width="1" rx="14" ry="14"/>
<text x="314" y="163" font-family="monospace" font-size="8" fill="#6b7280">L-05</text>
<text x="314" y="178" font-size="11" font-weight="600" fill="#111827">Lišta 1</text>
<rect x="422" y="154" width="32" height="13" fill="white" stroke="#1e3a8a" stroke-width="1" rx="2" ry="2"/>
<text x="438.0" y="163.5" text-anchor="middle" font-family="sans-serif" font-size="8" font-weight="700" fill="#1e3a8a">220V</text>
<rect x="304" y="194" width="156" height="36" fill="#dbeafe" stroke="#374151" stroke-width="1" rx="14" ry="14"/>
<text x="314" y="207" font-family="monospace" font-size="8" fill="#6b7280">L-06</text>
<text x="314" y="222" font-size="11" font-weight="600" fill="#111827">Lišta 2</text>
<rect x="422" y="198" width="32" height="13" fill="white" stroke="#1e3a8a" stroke-width="1" rx="2" ry="2"/>
<text x="438.0" y="207.5" text-anchor="middle" font-family="sans-serif" font-size="8" font-weight="700" fill="#1e3a8a">220V</text>
<rect x="304" y="238" width="156" height="36" fill="#dbeafe" stroke="#374151" stroke-width="1" rx="14" ry="14"/>
<text x="314" y="251" font-family="monospace" font-size="8" fill="#6b7280">L-07</text>
<text x="314" y="266" font-size="11" font-weight="600" fill="#111827">Lišta 3</text>
<rect x="422" y="242" width="32" height="13" fill="white" stroke="#1e3a8a" stroke-width="1" rx="2" ry="2"/>
<text x="438.0" y="251.5" text-anchor="middle" font-family="sans-serif" font-size="8" font-weight="700" fill="#1e3a8a">220V</text>
<rect x="304" y="282" width="156" height="36" fill="#ffedd5" stroke="#374151" stroke-width="1" rx="14" ry="14"/>
<text x="314" y="295" font-family="monospace" font-size="8" fill="#6b7280">L-10</text>
<text x="314" y="310" font-size="11" font-weight="600" fill="#111827">Obývák strop</text>
<rect x="422" y="286" width="32" height="13" fill="white" stroke="#1e3a8a" stroke-width="1" rx="2" ry="2"/>
<text x="438.0" y="295.5" text-anchor="middle" font-family="sans-serif" font-size="8" font-weight="700" fill="#1e3a8a">220V</text>
<rect x="304" y="326" width="156" height="36" fill="#dcfce7" stroke="#374151" stroke-width="1" rx="14" ry="14"/>
<text x="314" y="339" font-family="monospace" font-size="8" fill="#6b7280">L-12</text>
<text x="314" y="354" font-size="11" font-weight="600" fill="#111827">LED strop obývák</text>
<rect x="422" y="330" width="32" height="13" fill="white" stroke="#047857" stroke-width="1" rx="2" ry="2"/>
<text x="438.0" y="339.5" text-anchor="middle" font-family="sans-serif" font-size="8" font-weight="700" fill="#047857">24V</text>
<rect x="506" y="90" width="216" height="112" fill="#fefefe" stroke="#6b7280" stroke-width="1.5" stroke-dasharray="4,3" rx="6" ry="6"/>
<text x="522" y="120" font-size="16" font-weight="700" fill="#111827">Schodiště</text>
<text x="550" y="143" font-size="10" font-style="italic" fill="#6b7280">Svítidla</text>
<rect x="550" y="150" width="156" height="36" fill="#dbeafe" stroke="#374151" stroke-width="1" rx="14" ry="14"/>
<text x="560" y="163" font-family="monospace" font-size="8" fill="#6b7280">L-01</text>
<text x="560" y="178" font-size="11" font-weight="600" fill="#111827">Schodiště svítidlo</text>
<rect x="668" y="154" width="32" height="13" fill="white" stroke="#1e3a8a" stroke-width="1" rx="2" ry="2"/>
<text x="684.0" y="163.5" text-anchor="middle" font-family="sans-serif" font-size="8" font-weight="700" fill="#1e3a8a">220V</text>
<rect x="752" y="90" width="634" height="208" fill="#fefefe" stroke="#6b7280" stroke-width="1.5" stroke-dasharray="4,3" rx="6" ry="6"/>
<text x="768" y="120" font-size="16" font-weight="700" fill="#111827">Horní předsíň</text>
<text x="768" y="144" font-size="11" font-style="italic" fill="#6b7280">U schodů</text>
<rect x="768" y="160" width="240" height="122" fill="#f9fafb" stroke="#374151" stroke-width="2" rx="8" ry="8"/>
<rect x="778" y="188" width="110" height="84" fill="#dbeafe" stroke="#374151" stroke-width="1.5"/>
<rect x="792" y="200" width="82" height="40" fill="white" stroke="#374151" stroke-width="1" rx="3" ry="3"/>
<text x="833.0" y="253" text-anchor="middle" font-family="sans-serif" font-size="11" font-weight="600" fill="#111827">Schodiště</text>
<text x="833.0" y="267" text-anchor="middle" font-family="monospace" font-size="9" fill="#6b7280">L-01</text>
<rect x="852" y="192" width="32" height="13" fill="white" stroke="#1e3a8a" stroke-width="1" rx="2" ry="2"/>
<text x="868.0" y="201.5" text-anchor="middle" font-family="sans-serif" font-size="8" font-weight="700" fill="#1e3a8a">220V</text>
<rect x="888" y="188" width="110" height="84" fill="#dbeafe" stroke="#374151" stroke-width="1.5"/>
<rect x="902" y="200" width="82" height="40" fill="white" stroke="#374151" stroke-width="1" rx="3" ry="3"/>
<text x="943.0" y="253" text-anchor="middle" font-family="sans-serif" font-size="11" font-weight="600" fill="#111827">Horní předsíň lustr</text>
<text x="943.0" y="267" text-anchor="middle" font-family="monospace" font-size="9" fill="#6b7280">L-03</text>
<rect x="962" y="192" width="32" height="13" fill="white" stroke="#1e3a8a" stroke-width="1" rx="2" ry="2"/>
<text x="978.0" y="201.5" text-anchor="middle" font-family="sans-serif" font-size="8" font-weight="700" fill="#1e3a8a">220V</text>
<text x="778" y="180" font-family="monospace" font-size="9" fill="#6b7280">P-HP</text>
<text x="1056" y="144" font-size="11" font-style="italic" fill="#6b7280">U pokoje</text>
<rect x="1056" y="160" width="130" height="122" fill="#f9fafb" stroke="#374151" stroke-width="2" rx="8" ry="8"/>
<rect x="1066" y="188" width="110" height="84" fill="#dbeafe" stroke="#374151" stroke-width="1.5"/>
<rect x="1080" y="200" width="82" height="40" fill="white" stroke="#374151" stroke-width="1" rx="3" ry="3"/>
<text x="1121.0" y="253" text-anchor="middle" font-family="sans-serif" font-size="11" font-weight="600" fill="#111827">Horní předsíň lustr</text>
<text x="1121.0" y="267" text-anchor="middle" font-family="monospace" font-size="9" fill="#6b7280">L-03</text>
<rect x="1140" y="192" width="32" height="13" fill="white" stroke="#1e3a8a" stroke-width="1" rx="2" ry="2"/>
<text x="1156.0" y="201.5" text-anchor="middle" font-family="sans-serif" font-size="8" font-weight="700" fill="#1e3a8a">220V</text>
<text x="1066" y="180" font-family="monospace" font-size="9" fill="#6b7280">P-CP</text>
<text x="1214" y="143" font-size="10" font-style="italic" fill="#6b7280">Svítidla</text>
<rect x="1214" y="150" width="156" height="36" fill="#dbeafe" stroke="#374151" stroke-width="1" rx="14" ry="14"/>
<text x="1224" y="163" font-family="monospace" font-size="8" fill="#6b7280">L-03</text>
<text x="1224" y="178" font-size="11" font-weight="600" fill="#111827">Lustr horní předsíň</text>
<rect x="1332" y="154" width="32" height="13" fill="white" stroke="#1e3a8a" stroke-width="1" rx="2" ry="2"/>
<text x="1348.0" y="163.5" text-anchor="middle" font-family="sans-serif" font-size="8" font-weight="700" fill="#1e3a8a">220V</text>
<rect x="20" y="664" width="634" height="292" fill="#fefefe" stroke="#6b7280" stroke-width="1.5" stroke-dasharray="4,3" rx="6" ry="6"/>
<text x="36" y="694" font-size="16" font-weight="700" fill="#111827">Dolní předsíň</text>
<text x="36" y="718" font-size="11" font-style="italic" fill="#6b7280">U pracovny</text>
<rect x="36" y="734" width="130" height="206" fill="#f9fafb" stroke="#374151" stroke-width="2" rx="8" ry="8"/>
<rect x="46.0" y="762" width="110" height="84" fill="#fef3c7" stroke="#374151" stroke-width="1.5"/>
<rect x="60.0" y="774" width="82" height="40" fill="white" stroke="#374151" stroke-width="1" rx="3" ry="3"/>
<text x="101.0" y="827" text-anchor="middle" font-family="sans-serif" font-size="11" font-weight="600" fill="#111827">LED pásek</text>
<text x="101.0" y="841" text-anchor="middle" font-family="monospace" font-size="9" fill="#6b7280">L-02</text>
<rect x="120.0" y="766" width="32" height="13" fill="white" stroke="#047857" stroke-width="1" rx="2" ry="2"/>
<text x="136.0" y="775.5" text-anchor="middle" font-family="sans-serif" font-size="8" font-weight="700" fill="#047857">24V</text>
<rect x="46.0" y="846" width="110" height="84" fill="#ffedd5" stroke="#374151" stroke-width="1.5"/>
<rect x="60.0" y="858" width="82" height="40" fill="white" stroke="#374151" stroke-width="1" rx="3" ry="3"/>
<text x="101.0" y="911" text-anchor="middle" font-family="sans-serif" font-size="11" font-weight="600" fill="#111827">Předsíň strop</text>
<text x="101.0" y="925" text-anchor="middle" font-family="monospace" font-size="9" fill="#6b7280">L-09</text>
<rect x="120.0" y="850" width="32" height="13" fill="white" stroke="#1e3a8a" stroke-width="1" rx="2" ry="2"/>
<text x="136.0" y="859.5" text-anchor="middle" font-family="sans-serif" font-size="8" font-weight="700" fill="#1e3a8a">220V</text>
<text x="46" y="754" font-family="monospace" font-size="9" fill="#6b7280">P-DP-F</text>
<text x="214" y="718" font-size="11" font-style="italic" fill="#6b7280">U dveří</text>
<rect x="214" y="734" width="240" height="122" fill="#f9fafb" stroke="#374151" stroke-width="2" rx="8" ry="8"/>
<rect x="224" y="762" width="110" height="84" fill="#fef3c7" stroke="#374151" stroke-width="1.5"/>
<rect x="238" y="774" width="82" height="40" fill="white" stroke="#374151" stroke-width="1" rx="3" ry="3"/>
<text x="279.0" y="827" text-anchor="middle" font-family="sans-serif" font-size="11" font-weight="600" fill="#111827">LED pásek</text>
<text x="279.0" y="841" text-anchor="middle" font-family="monospace" font-size="9" fill="#6b7280">L-02</text>
<rect x="298" y="766" width="32" height="13" fill="white" stroke="#047857" stroke-width="1" rx="2" ry="2"/>
<text x="314.0" y="775.5" text-anchor="middle" font-family="sans-serif" font-size="8" font-weight="700" fill="#047857">24V</text>
<rect x="334" y="762" width="110" height="84" fill="#ffedd5" stroke="#374151" stroke-width="1.5"/>
<rect x="348" y="774" width="82" height="40" fill="white" stroke="#374151" stroke-width="1" rx="3" ry="3"/>
<text x="389.0" y="827" text-anchor="middle" font-family="sans-serif" font-size="11" font-weight="600" fill="#111827">Předsíň strop</text>
<text x="389.0" y="841" text-anchor="middle" font-family="monospace" font-size="9" fill="#6b7280">L-09</text>
<rect x="408" y="766" width="32" height="13" fill="white" stroke="#1e3a8a" stroke-width="1" rx="2" ry="2"/>
<text x="424.0" y="775.5" text-anchor="middle" font-family="sans-serif" font-size="8" font-weight="700" fill="#1e3a8a">220V</text>
<line x1="334" y1="768" x2="334" y2="840" stroke="#374151" stroke-width="1" stroke-dasharray="3,3"/>
<text x="224" y="754" font-family="monospace" font-size="9" fill="#6b7280">P-DP-G</text>
<text x="482" y="717" font-size="10" font-style="italic" fill="#6b7280">Svítidla</text>
<rect x="482" y="724" width="156" height="36" fill="#fef3c7" stroke="#374151" stroke-width="1" rx="14" ry="14"/>
<text x="492" y="737" font-family="monospace" font-size="8" fill="#6b7280">L-02</text>
<text x="492" y="752" font-size="11" font-weight="600" fill="#111827">LED pásek dolní předsíň</text>
<rect x="600" y="728" width="32" height="13" fill="white" stroke="#047857" stroke-width="1" rx="2" ry="2"/>
<text x="616.0" y="737.5" text-anchor="middle" font-family="sans-serif" font-size="8" font-weight="700" fill="#047857">24V</text>
<rect x="482" y="768" width="156" height="36" fill="#ffedd5" stroke="#374151" stroke-width="1" rx="14" ry="14"/>
<text x="492" y="781" font-family="monospace" font-size="8" fill="#6b7280">L-09</text>
<text x="492" y="796" font-size="11" font-weight="600" fill="#111827">Předsíň strop</text>
<rect x="600" y="772" width="32" height="13" fill="white" stroke="#1e3a8a" stroke-width="1" rx="2" ry="2"/>
<text x="616.0" y="781.5" text-anchor="middle" font-family="sans-serif" font-size="8" font-weight="700" fill="#1e3a8a">220V</text>
<rect x="684" y="664" width="252" height="208" fill="#fefefe" stroke="#6b7280" stroke-width="1.5" stroke-dasharray="4,3" rx="6" ry="6"/>
<text x="700" y="694" font-size="16" font-weight="700" fill="#111827">Kuchyň</text>
<rect x="700" y="734" width="220" height="122" fill="#f9fafb" stroke="#374151" stroke-width="2" rx="8" ry="8"/>
<rect x="710" y="762" width="90" height="84" fill="#f3f4f6" stroke="#374151" stroke-width="1.5"/>
<circle cx="755.0" cy="798.0" r="22" fill="white" stroke="#374151" stroke-width="1.5"/>
<circle cx="748.0" cy="798.0" r="2.5" fill="#374151"/>
<circle cx="762.0" cy="798.0" r="2.5" fill="#374151"/>
<text x="755.0" y="838" text-anchor="middle" font-family="sans-serif" font-size="11" fill="#111827">Z</text>
<rect x="764" y="766" width="32" height="13" fill="white" stroke="#1e3a8a" stroke-width="1" rx="2" ry="2"/>
<text x="780.0" y="775.5" text-anchor="middle" font-family="sans-serif" font-size="8" font-weight="700" fill="#1e3a8a">220V</text>
<rect x="800" y="762" width="110" height="84" fill="#dbeafe" stroke="#374151" stroke-width="1.5"/>
<rect x="814" y="774" width="82" height="40" fill="white" stroke="#374151" stroke-width="1" rx="3" ry="3"/>
<text x="855.0" y="827" text-anchor="middle" font-family="sans-serif" font-size="11" font-weight="600" fill="#111827">Lišta 3</text>
<text x="855.0" y="841" text-anchor="middle" font-family="monospace" font-size="9" fill="#6b7280">L-07</text>
<rect x="874" y="766" width="32" height="13" fill="white" stroke="#1e3a8a" stroke-width="1" rx="2" ry="2"/>
<text x="890.0" y="775.5" text-anchor="middle" font-family="sans-serif" font-size="8" font-weight="700" fill="#1e3a8a">220V</text>
<text x="710" y="754" font-family="monospace" font-size="9" fill="#6b7280">P-KU</text>
<rect x="966" y="664" width="456" height="208" fill="#fefefe" stroke="#6b7280" stroke-width="1.5" stroke-dasharray="4,3" rx="6" ry="6"/>
<text x="982" y="694" font-size="16" font-weight="700" fill="#111827">Jídelna</text>
<rect x="982" y="734" width="240" height="122" fill="#f9fafb" stroke="#374151" stroke-width="2" rx="8" ry="8"/>
<rect x="992" y="762" width="110" height="84" fill="#dcfce7" stroke="#374151" stroke-width="1.5"/>
<rect x="1006" y="774" width="82" height="40" fill="white" stroke="#374151" stroke-width="1" rx="3" ry="3"/>
<text x="1047.0" y="827" text-anchor="middle" font-family="sans-serif" font-size="11" font-weight="600" fill="#111827">LED</text>
<text x="1047.0" y="841" text-anchor="middle" font-family="monospace" font-size="9" fill="#6b7280">L-13</text>
<rect x="1066" y="766" width="32" height="13" fill="white" stroke="#047857" stroke-width="1" rx="2" ry="2"/>
<text x="1082.0" y="775.5" text-anchor="middle" font-family="sans-serif" font-size="8" font-weight="700" fill="#047857">24V</text>
<rect x="1102" y="762" width="110" height="84" fill="#ffedd5" stroke="#374151" stroke-width="1.5"/>
<rect x="1116" y="774" width="82" height="40" fill="white" stroke="#374151" stroke-width="1" rx="3" ry="3"/>
<text x="1157.0" y="827" text-anchor="middle" font-family="sans-serif" font-size="11" font-weight="600" fill="#111827">Lustr</text>
<text x="1157.0" y="841" text-anchor="middle" font-family="monospace" font-size="9" fill="#6b7280">L-04</text>
<rect x="1176" y="766" width="32" height="13" fill="white" stroke="#1e3a8a" stroke-width="1" rx="2" ry="2"/>
<text x="1192.0" y="775.5" text-anchor="middle" font-family="sans-serif" font-size="8" font-weight="700" fill="#1e3a8a">220V</text>
<line x1="1102" y1="768" x2="1102" y2="840" stroke="#374151" stroke-width="1" stroke-dasharray="3,3"/>
<text x="992" y="754" font-family="monospace" font-size="9" fill="#6b7280">P-JI</text>
<text x="1250" y="717" font-size="10" font-style="italic" fill="#6b7280">Svítidla</text>
<rect x="1250" y="724" width="156" height="36" fill="#ffedd5" stroke="#374151" stroke-width="1" rx="14" ry="14"/>
<text x="1260" y="737" font-family="monospace" font-size="8" fill="#6b7280">L-04</text>
<text x="1260" y="752" font-size="11" font-weight="600" fill="#111827">Lustr jídelna</text>
<rect x="1368" y="728" width="32" height="13" fill="white" stroke="#1e3a8a" stroke-width="1" rx="2" ry="2"/>
<text x="1384.0" y="737.5" text-anchor="middle" font-family="sans-serif" font-size="8" font-weight="700" fill="#1e3a8a">220V</text>
<rect x="1250" y="768" width="156" height="36" fill="#dcfce7" stroke="#374151" stroke-width="1" rx="14" ry="14"/>
<text x="1260" y="781" font-family="monospace" font-size="8" fill="#6b7280">L-13</text>
<text x="1260" y="796" font-size="11" font-weight="600" fill="#111827">LED 24V jídelna</text>
<rect x="1368" y="772" width="32" height="13" fill="white" stroke="#047857" stroke-width="1" rx="2" ry="2"/>
<text x="1384.0" y="781.5" text-anchor="middle" font-family="sans-serif" font-size="8" font-weight="700" fill="#047857">24V</text>
<path d="M 156.0 230.0 C 353.0 230.0, 353.0 168.0, 550 168.0" fill="none" stroke="#dc2626" stroke-width="1.5" opacity="0.75"/>
<circle cx="156.0" cy="230.0" r="2.5" fill="#dc2626"/>
<circle cx="550" cy="168.0" r="2.5" fill="#dc2626"/>
<path d="M 101.0 314.0 C 291.5 314.0, 291.5 786.0, 482 786.0" fill="none" stroke="#be185d" stroke-width="1.5" opacity="0.75"/>
<circle cx="101.0" cy="314.0" r="2.5" fill="#be185d"/>
<circle cx="482" cy="786.0" r="2.5" fill="#be185d"/>
<path d="M 211.0 314.0 C 257.5 314.0, 257.5 300.0, 304 300.0" fill="none" stroke="#dc2626" stroke-width="1.5" opacity="0.75"/>
<circle cx="211.0" cy="314.0" r="2.5" fill="#dc2626"/>
<circle cx="304" cy="300.0" r="2.5" fill="#dc2626"/>
<path d="M 156.0 398.0 C 230.0 398.0, 230.0 344.0, 304 344.0" fill="none" stroke="#2563eb" stroke-width="1.5" opacity="0.75"/>
<circle cx="156.0" cy="398.0" r="2.5" fill="#2563eb"/>
<circle cx="304" cy="344.0" r="2.5" fill="#2563eb"/>
<path d="M 101.0 482.0 C 202.5 482.0, 202.5 168.0, 304 168.0" fill="none" stroke="#ea580c" stroke-width="1.5" opacity="0.75"/>
<circle cx="101.0" cy="482.0" r="2.5" fill="#ea580c"/>
<circle cx="304" cy="168.0" r="2.5" fill="#ea580c"/>
<path d="M 211.0 482.0 C 257.5 482.0, 257.5 212.0, 304 212.0" fill="none" stroke="#0891b2" stroke-width="1.5" opacity="0.75"/>
<circle cx="211.0" cy="482.0" r="2.5" fill="#0891b2"/>
<circle cx="304" cy="212.0" r="2.5" fill="#0891b2"/>
<path d="M 101.0 566.0 C 202.5 566.0, 202.5 256.0, 304 256.0" fill="none" stroke="#ca8a04" stroke-width="1.5" opacity="0.75"/>
<circle cx="101.0" cy="566.0" r="2.5" fill="#ca8a04"/>
<circle cx="304" cy="256.0" r="2.5" fill="#ca8a04"/>
<path d="M 211.0 566.0 C 730.5 566.0, 730.5 742.0, 1250 742.0" fill="none" stroke="#c026d3" stroke-width="1.5" opacity="0.75"/>
<circle cx="211.0" cy="566.0" r="2.5" fill="#c026d3"/>
<circle cx="1250" cy="742.0" r="2.5" fill="#c026d3"/>
<path d="M 101.0 804.0 C 291.5 804.0, 291.5 742.0, 482 742.0" fill="none" stroke="#2563eb" stroke-width="1.5" opacity="0.75"/>
<circle cx="101.0" cy="804.0" r="2.5" fill="#2563eb"/>
<circle cx="482" cy="742.0" r="2.5" fill="#2563eb"/>
<path d="M 101.0 888.0 C 291.5 888.0, 291.5 786.0, 482 786.0" fill="none" stroke="#be185d" stroke-width="1.5" opacity="0.75"/>
<circle cx="101.0" cy="888.0" r="2.5" fill="#be185d"/>
<circle cx="482" cy="786.0" r="2.5" fill="#be185d"/>
<path d="M 279.0 804.0 C 380.5 804.0, 380.5 742.0, 482 742.0" fill="none" stroke="#2563eb" stroke-width="1.5" opacity="0.75"/>
<circle cx="279.0" cy="804.0" r="2.5" fill="#2563eb"/>
<circle cx="482" cy="742.0" r="2.5" fill="#2563eb"/>
<path d="M 389.0 804.0 C 435.5 804.0, 435.5 786.0, 482 786.0" fill="none" stroke="#be185d" stroke-width="1.5" opacity="0.75"/>
<circle cx="389.0" cy="804.0" r="2.5" fill="#be185d"/>
<circle cx="482" cy="786.0" r="2.5" fill="#be185d"/>
<path d="M 833.0 230.0 C 691.5 230.0, 691.5 168.0, 550 168.0" fill="none" stroke="#dc2626" stroke-width="1.5" opacity="0.75"/>
<circle cx="833.0" cy="230.0" r="2.5" fill="#dc2626"/>
<circle cx="550" cy="168.0" r="2.5" fill="#dc2626"/>
<path d="M 943.0 230.0 C 1078.5 230.0, 1078.5 168.0, 1214 168.0" fill="none" stroke="#16a34a" stroke-width="1.5" opacity="0.75"/>
<circle cx="943.0" cy="230.0" r="2.5" fill="#16a34a"/>
<circle cx="1214" cy="168.0" r="2.5" fill="#16a34a"/>
<path d="M 1121.0 230.0 C 1167.5 230.0, 1167.5 168.0, 1214 168.0" fill="none" stroke="#16a34a" stroke-width="1.5" opacity="0.75"/>
<circle cx="1121.0" cy="230.0" r="2.5" fill="#16a34a"/>
<circle cx="1214" cy="168.0" r="2.5" fill="#16a34a"/>
<path d="M 1047.0 804.0 C 1148.5 804.0, 1148.5 786.0, 1250 786.0" fill="none" stroke="#16a34a" stroke-width="1.5" opacity="0.75"/>
<circle cx="1047.0" cy="804.0" r="2.5" fill="#16a34a"/>
<circle cx="1250" cy="786.0" r="2.5" fill="#16a34a"/>
<path d="M 1157.0 804.0 C 1203.5 804.0, 1203.5 742.0, 1250 742.0" fill="none" stroke="#c026d3" stroke-width="1.5" opacity="0.75"/>
<circle cx="1157.0" cy="804.0" r="2.5" fill="#c026d3"/>
<circle cx="1250" cy="742.0" r="2.5" fill="#c026d3"/>
<path d="M 855.0 804.0 C 579.5 804.0, 579.5 256.0, 304 256.0" fill="none" stroke="#ca8a04" stroke-width="1.5" opacity="0.75"/>
<circle cx="855.0" cy="804.0" r="2.5" fill="#ca8a04"/>
<circle cx="304" cy="256.0" r="2.5" fill="#ca8a04"/>
<rect x="20" y="995" width="14" height="14" fill="#ffedd5" stroke="#374151" stroke-width="1"/>
<text x="40" y="1006" font-size="11" fill="#111827">HUE</text>
<rect x="130" y="995" width="14" height="14" fill="#dbeafe" stroke="#374151" stroke-width="1"/>
<text x="150" y="1006" font-size="11" fill="#111827">non-HUE</text>
<rect x="240" y="995" width="14" height="14" fill="#fef3c7" stroke="#374151" stroke-width="1"/>
<text x="260" y="1006" font-size="11" fill="#111827">LED-trafo</text>
<rect x="350" y="995" width="14" height="14" fill="#dcfce7" stroke="#374151" stroke-width="1"/>
<text x="370" y="1006" font-size="11" fill="#111827">RGBW-PM</text>
<rect x="460" y="995" width="32" height="13" fill="white" stroke="#1e3a8a" stroke-width="1" rx="2" ry="2"/>
<text x="476.0" y="1004.5" text-anchor="middle" font-family="sans-serif" font-size="8" font-weight="700" fill="#1e3a8a">220V</text>
<text x="498" y="1006" font-size="11" fill="#111827">220V</text>
<rect x="560" y="995" width="32" height="13" fill="white" stroke="#047857" stroke-width="1" rx="2" ry="2"/>
<text x="576.0" y="1004.5" text-anchor="middle" font-family="sans-serif" font-size="8" font-weight="700" fill="#047857">24V</text>
<text x="598" y="1006" font-size="11" fill="#111827">24V</text>
</svg>