<svg xmlns="http://www.w3.org/2000/svg" viewBox="0 0 1354 1226" width="1354" height="1226" font-family="sans-serif">
<rect width="100%" height="100%" fill="white"/>
<text x="20" y="36" font-size="24" font-weight="700" fill="#111827">Přehled — propojení okruhů napříč místnostmi</text>
<text x="20" y="58" font-size="12" font-style="italic" fill="#6b7280">Čáry spojují rámečky, které ovládají stejný okruh (3-cestné nebo paralelka).</text>
<rect x="20" y="140" width="272" height="768" fill="#fefefe" stroke="#6b7280" stroke-width="1.5" stroke-dasharray="4,3" rx="6" ry="6"/>
<text x="36" y="170" font-size="16" font-weight="700" fill="#111827">Obývák</text>
<text x="36" y="194" font-size="11" font-style="italic" fill="#6b7280">Vstup</text>
<rect x="36" y="210" width="240" height="122" fill="#f9fafb" stroke="#374151" stroke-width="2" rx="8" ry="8"/>
<rect x="46" y="238" width="220" height="84" fill="#dbeafe" stroke="#374151" stroke-width="1.5"/>
<line x1="156" y1="244" x2="156" y2="316" stroke="#374151" stroke-width="1" stroke-dasharray="3,3"/>
<rect x="60" y="250" width="82" height="40" fill="white" stroke="#374151" stroke-width="1" rx="3" ry="3"/>
<text x="101.0" y="303" text-anchor="middle" font-family="sans-serif" font-size="11" font-weight="600" fill="#111827">Schodiště</text>
<text x="101.0" y="317" text-anchor="middle" font-family="monospace" font-size="9" fill="#6b7280">L-01</text>
<rect x="170" y="250" width="82" height="40" fill="#f3f4f6" stroke="#374151" stroke-width="1" rx="3" ry="3"/>
<text x="211.0" y="273.0" text-anchor="middle" font-family="sans-serif" font-size="10" font-style="italic" fill="#6b7280">neobsazeno</text>
<text x="211.0" y="303" text-anchor="middle" font-family="sans-serif" font-size="11" font-weight="600" fill="#111827">schody</text>
<text x="46" y="230" font-family="monospace" font-size="9" fill="#6b7280">P-OB-A</text>
<text x="266" y="230" text-anchor="end" font-family="sans-serif" font-size="9" font-weight="700" fill="#6b7280">NON-HUE</text>
<rect x="36" y="350" width="240" height="122" fill="#f9fafb" stroke="#374151" stroke-width="2" rx="8" ry="8"/>
<rect x="46" y="378" width="220" height="84" fill="#ffedd5" stroke="#374151" stroke-width="1.5"/>
<line x1="156" y1="384" x2="156" y2="456" stroke="#374151" stroke-width="1" stroke-dasharray="3,3"/>
<rect x="60" y="390" width="82" height="40" fill="white" stroke="#374151" stroke-width="1" rx="3" ry="3"/>
<text x="101.0" y="443" text-anchor="middle" font-family="sans-serif" font-size="11" font-weight="600" fill="#111827">Předsíň strop</text>
<text x="101.0" y="457" text-anchor="middle" font-family="monospace" font-size="9" fill="#6b7280">L-11</text>
<rect x="170" y="390" width="82" height="40" fill="white" stroke="#374151" stroke-width="1" rx="3" ry="3"/>
<text x="211.0" y="443" text-anchor="middle" font-family="sans-serif" font-size="11" font-weight="600" fill="#111827">Obývák strop</text>
<text x="211.0" y="457" text-anchor="middle" font-family="monospace" font-size="9" fill="#6b7280">L-10</text>
<text x="46" y="370" font-family="monospace" font-size="9" fill="#6b7280">P-OB-B</text>
<text x="266" y="370" text-anchor="end" font-family="sans-serif" font-size="9" font-weight="700" fill="#6b7280">HUE</text>
<rect x="36" y="490" width="130" height="122" fill="#f9fafb" stroke="#374151" stroke-width="2" rx="8" ry="8"/>
<rect x="46" y="518" width="110" height="84" fill="#e5e7eb" stroke="#374151" stroke-width="1.5"/>
<rect x="60" y="530" width="82" height="40" fill="white" stroke="#374151" stroke-width="1" rx="3" ry="3"/>
<text x="101.0" y="583" text-anchor="middle" font-family="sans-serif" font-size="11" font-weight="600" fill="#111827">LED strop</text>
<text x="101.0" y="597" text-anchor="middle" font-family="monospace" font-size="9" fill="#6b7280">L-12</text>
<text x="46" y="510" font-family="monospace" font-size="9" fill="#6b7280">P-OB-E</text>
<text x="156" y="510" text-anchor="end" font-family="sans-serif" font-size="9" font-weight="700" fill="#6b7280">EXISTING</text>
<rect x="36" y="630" width="240" height="122" fill="#f9fafb" stroke="#374151" stroke-width="2" rx="8" ry="8"/>
<rect x="46" y="658" width="220" height="84" fill="#dbeafe" stroke="#374151" stroke-width="1.5"/>
<line x1="156" y1="664" x2="156" y2="736" stroke="#374151" stroke-width="1" stroke-dasharray="3,3"/>
<rect x="60" y="670" width="82" height="40" fill="white" stroke="#374151" stroke-width="1" rx="3" ry="3"/>
<text x="101.0" y="723" text-anchor="middle" font-family="sans-serif" font-size="11" font-weight="600" fill="#111827">Lišta 1</text>
<text x="101.0" y="737" text-anchor="middle" font-family="monospace" font-size="9" fill="#6b7280">L-05</text>
<rect x="170" y="670" width="82" height="40" fill="white" stroke="#374151" stroke-width="1" rx="3" ry="3"/>
<text x="211.0" y="723" text-anchor="middle" font-family="sans-serif" font-size="11" font-weight="600" fill="#111827">Lišta 2</text>
<text x="211.0" y="737" text-anchor="middle" font-family="monospace" font-size="9" fill="#6b7280">L-06</text>
<text x="46" y="650" font-family="monospace" font-size="9" fill="#6b7280">P-OB-C</text>
<text x="266" y="650" text-anchor="end" font-family="sans-serif" font-size="9" font-weight="700" fill="#6b7280">NON-HUE</text>
<rect x="36" y="770" width="240" height="122" fill="#f9fafb" stroke="#374151" stroke-width="2" rx="8" ry="8"/>
<rect x="46" y="798" width="220" height="84" fill="#ffedd5" stroke="#374151" stroke-width="1.5"/>
<line x1="156" y1="804" x2="156" y2="876" stroke="#374151" stroke-width="1" stroke-dasharray="3,3"/>
<rect x="60" y="810" width="82" height="40" fill="white" stroke="#374151" stroke-width="1" rx="3" ry="3"/>
<text x="101.0" y="863" text-anchor="middle" font-family="sans-serif" font-size="11" font-weight="600" fill="#111827">Lišta 3</text>
<text x="101.0" y="877" text-anchor="middle" font-family="monospace" font-size="9" fill="#6b7280">L-07</text>
<rect x="170" y="810" width="82" height="40" fill="white" stroke="#374151" stroke-width="1" rx="3" ry="3"/>
<text x="211.0" y="863" text-anchor="middle" font-family="sans-serif" font-size="11" font-weight="600" fill="#111827">Lustr K</text>
<text x="211.0" y="877" text-anchor="middle" font-family="monospace" font-size="9" fill="#6b7280">L-08</text>
<text x="46" y="790" font-family="monospace" font-size="9" fill="#6b7280">P-OB-D</text>
<text x="266" y="790" text-anchor="end" font-family="sans-serif" font-size="9" font-weight="700" fill="#6b7280">HUE</text>
<rect x="322" y="140" width="340" height="348" fill="#fefefe" stroke="#6b7280" stroke-width="1.5" stroke-dasharray="4,3" rx="6" ry="6"/>
<text x="338" y="170" font-size="16" font-weight="700" fill="#111827">Horní předsíň</text>
<text x="338" y="194" font-size="11" font-style="italic" fill="#6b7280">U schodů</text>
<rect x="338" y="210" width="130" height="122" fill="#f9fafb" stroke="#374151" stroke-width="2" rx="8" ry="8"/>
<rect x="348" y="238" width="110" height="84" fill="#dbeafe" stroke="#374151" stroke-width="1.5"/>
<rect x="362" y="250" width="82" height="40" fill="white" stroke="#374151" stroke-width="1" rx="3" ry="3"/>
<text x="403.0" y="303" text-anchor="middle" font-family="sans-serif" font-size="11" font-weight="600" fill="#111827">Schody</text>
<text x="403.0" y="317" text-anchor="middle" font-family="monospace" font-size="9" fill="#6b7280">L-01</text>
<text x="348" y="230" font-family="monospace" font-size="9" fill="#6b7280">P-HP-H1</text>
<text x="458" y="230" text-anchor="end" font-family="sans-serif" font-size="9" font-weight="700" fill="#6b7280">NON-HUE</text>
<rect x="338" y="350" width="130" height="122" fill="#f9fafb" stroke="#374151" stroke-width="2" rx="8" ry="8"/>
<rect x="348" y="378" width="110" height="84" fill="#dbeafe" stroke="#374151" stroke-width="1.5"/>
<rect x="362" y="390" width="82" height="40" fill="white" stroke="#374151" stroke-width="1" rx="3" ry="3"/>
<text x="403.0" y="443" text-anchor="middle" font-family="sans-serif" font-size="11" font-weight="600" fill="#111827">Horní předsíň lustr</text>
<text x="403.0" y="457" text-anchor="middle" font-family="monospace" font-size="9" fill="#6b7280">L-03</text>
<text x="348" y="370" font-family="monospace" font-size="9" fill="#6b7280">P-HP-H2</text>
<text x="458" y="370" text-anchor="end" font-family="sans-serif" font-size="9" font-weight="700" fill="#6b7280">NON-HUE</text>
<text x="516" y="194" font-size="11" font-style="italic" fill="#6b7280">Samostatný (paralelka)</text>
<rect x="516" y="210" width="130" height="122" fill="#f9fafb" stroke="#374151" stroke-width="2" rx="8" ry="8"/>
<rect x="526" y="238" width="110" height="84" fill="#dbeafe" stroke="#374151" stroke-width="1.5"/>
<rect x="540" y="250" width="82" height="40" fill="white" stroke="#374151" stroke-width="1" rx="3" ry="3"/>
<text x="581.0" y="303" text-anchor="middle" font-family="sans-serif" font-size="11" font-weight="600" fill="#111827">Horní předsíň lustr</text>
<text x="581.0" y="317" text-anchor="middle" font-family="monospace" font-size="9" fill="#6b7280">L-03</text>
<text x="526" y="230" font-family="monospace" font-size="9" fill="#6b7280">P-HP-H3</text>
<text x="636" y="230" text-anchor="end" font-family="sans-serif" font-size="9" font-weight="700" fill="#6b7280">NON-HUE</text>
<rect x="692" y="140" width="162" height="208" fill="#fefefe" stroke="#6b7280" stroke-width="1.5" stroke-dasharray="4,3" rx="6" ry="6"/>
<text x="708" y="170" font-size="16" font-weight="700" fill="#111827">Chodba u pokoje</text>
<rect x="708" y="210" width="130" height="122" fill="#f9fafb" stroke="#374151" stroke-width="2" rx="8" ry="8"/>
<rect x="718" y="238" width="110" height="84" fill="#dbeafe" stroke="#374151" stroke-width="1.5"/>
<rect x="732" y="250" width="82" height="40" fill="white" stroke="#374151" stroke-width="1" rx="3" ry="3"/>
<text x="773.0" y="303" text-anchor="middle" font-family="sans-serif" font-size="11" font-weight="600" fill="#111827">Schodiště</text>
<text x="773.0" y="317" text-anchor="middle" font-family="monospace" font-size="9" fill="#6b7280">L-01</text>
<text x="718" y="230" font-family="monospace" font-size="9" fill="#6b7280">P-CP</text>
<text x="828" y="230" text-anchor="end" font-family="sans-serif" font-size="9" font-weight="700" fill="#6b7280">NON-HUE</text>
<rect x="884" y="140" width="450" height="348" fill="#fefefe" stroke="#6b7280" stroke-width="1.5" stroke-dasharray="4,3" rx="6" ry="6"/>
<text x="900" y="170" font-size="16" font-weight="700" fill="#111827">Dolní předsíň</text>
<text x="900" y="194" font-size="11" font-style="italic" fill="#6b7280">U pracovny</text>
<rect x="900" y="210" width="130" height="122" fill="#f9fafb" stroke="#374151" stroke-width="2" rx="8" ry="8"/>
<rect x="910" y="238" width="110" height="84" fill="#dbeafe" stroke="#374151" stroke-width="1.5"/>
<rect x="924" y="250" width="82" height="40" fill="white" stroke="#374151" stroke-width="1" rx="3" ry="3"/>
<text x="965.0" y="303" text-anchor="middle" font-family="sans-serif" font-size="11" font-weight="600" fill="#111827">LED pásek</text>
<text x="965.0" y="317" text-anchor="middle" font-family="monospace" font-size="9" fill="#6b7280">L-02</text>
<text x="910" y="230" font-family="monospace" font-size="9" fill="#6b7280">P-DP-F1</text>
<text x="1020" y="230" text-anchor="end" font-family="sans-serif" font-size="9" font-weight="700" fill="#6b7280">NON-HUE</text>
<rect x="900" y="350" width="130" height="122" fill="#f9fafb" stroke="#374151" stroke-width="2" rx="8" ry="8"/>
<rect x="910" y="378" width="110" height="84" fill="#ffedd5" stroke="#374151" stroke-width="1.5"/>
<rect x="924" y="390" width="82" height="40" fill="white" stroke="#374151" stroke-width="1" rx="3" ry="3"/>
<text x="965.0" y="443" text-anchor="middle" font-family="sans-serif" font-size="11" font-weight="600" fill="#111827">Předsíň strop</text>
<text x="965.0" y="457" text-anchor="middle" font-family="monospace" font-size="9" fill="#6b7280">L-09</text>
<text x="910" y="370" font-family="monospace" font-size="9" fill="#6b7280">P-DP-F2</text>
<text x="1020" y="370" text-anchor="end" font-family="sans-serif" font-size="9" font-weight="700" fill="#6b7280">HUE</text>
<text x="1078" y="194" font-size="11" font-style="italic" fill="#6b7280">U dveří</text>
<rect x="1078" y="210" width="240" height="122" fill="#f9fafb" stroke="#374151" stroke-width="2" rx="8" ry="8"/>
<rect x="1088" y="238" width="220" height="84" fill="#ede9fe" stroke="#374151" stroke-width="1.5"/>
<line x1="1198" y1="244" x2="1198" y2="316" stroke="#374151" stroke-width="1" stroke-dasharray="3,3"/>
<rect x="1102" y="250" width="82" height="40" fill="white" stroke="#374151" stroke-width="1" rx="3" ry="3"/>
<text x="1143.0" y="303" text-anchor="middle" font-family="sans-serif" font-size="11" font-weight="600" fill="#111827">LED pásek</text>
<text x="1143.0" y="317" text-anchor="middle" font-family="monospace" font-size="9" fill="#6b7280">L-02</text>
<rect x="1212" y="250" width="82" height="40" fill="white" stroke="#374151" stroke-width="1" rx="3" ry="3"/>
<text x="1253.0" y="303" text-anchor="middle" font-family="sans-serif" font-size="11" font-weight="600" fill="#111827">Předsíň strop</text>
<text x="1253.0" y="317" text-anchor="middle" font-family="monospace" font-size="9" fill="#6b7280">L-09</text>
<text x="1088" y="230" font-family="monospace" font-size="9" fill="#6b7280">P-DP-G</text>
<text x="1308" y="230" text-anchor="end" font-family="sans-serif" font-size="9" font-weight="700" fill="#6b7280">MIXED</text>
<rect x="20" y="938" width="582" height="208" fill="#fefefe" stroke="#6b7280" stroke-width="1.5" stroke-dasharray="4,3" rx="6" ry="6"/>
<text x="36" y="968" font-size="16" font-weight="700" fill="#111827">Kuchyň</text>
<rect x="36" y="1008" width="550" height="122" fill="#f9fafb" stroke="#374151" stroke-width="2" rx="8" ry="8"/>
<rect x="46" y="1036" width="90" height="84" fill="#e5e7eb" stroke="#374151" stroke-width="1.5"/>
<circle cx="91.0" cy="1072.0" r="22" fill="white" stroke="#374151" stroke-width="1.5"/>
<circle cx="84.0" cy="1072.0" r="2.5" fill="#374151"/>
<circle cx="98.0" cy="1072.0" r="2.5" fill="#374151"/>
<text x="91.0" y="1112" text-anchor="middle" font-family="sans-serif" font-size="11" fill="#111827">Z</text>
<rect x="136" y="1036" width="110" height="84" fill="#e5e7eb" stroke="#374151" stroke-width="1.5"/>
<rect x="150" y="1048" width="82" height="40" fill="white" stroke="#374151" stroke-width="1" rx="3" ry="3"/>
<text x="191.0" y="1101" text-anchor="middle" font-family="sans-serif" font-size="11" font-weight="600" fill="#111827">Lišta 3</text>
<rect x="246" y="1036" width="220" height="84" fill="#e5e7eb" stroke="#374151" stroke-width="1.5"/>
<line x1="356" y1="1042" x2="356" y2="1114" stroke="#374151" stroke-width="1" stroke-dasharray="3,3"/>
<rect x="260" y="1048" width="82" height="40" fill="white" stroke="#374151" stroke-width="1" rx="3" ry="3"/>
<text x="301.0" y="1101" text-anchor="middle" font-family="sans-serif" font-size="11" font-weight="600" fill="#111827">LED</text>
<rect x="370" y="1048" width="82" height="40" fill="white" stroke="#374151" stroke-width="1" rx="3" ry="3"/>
<text x="411.0" y="1101" text-anchor="middle" font-family="sans-serif" font-size="11" font-weight="600" fill="#111827">LED</text>
<rect x="466" y="1036" width="110" height="84" fill="#e5e7eb" stroke="#374151" stroke-width="1.5"/>
<rect x="480" y="1048" width="82" height="40" fill="white" stroke="#374151" stroke-width="1" rx="3" ry="3"/>
<text x="521.0" y="1101" text-anchor="middle" font-family="sans-serif" font-size="11" font-weight="600" fill="#111827">dřezák</text>
<text x="46" y="1028" font-family="monospace" font-size="9" fill="#6b7280">P-KU</text>
<text x="576" y="1028" text-anchor="end" font-family="sans-serif" font-size="9" font-weight="700" fill="#6b7280">EXISTING</text>
<rect x="632" y="938" width="272" height="208" fill="#fefefe" stroke="#6b7280" stroke-width="1.5" stroke-dasharray="4,3" rx="6" ry="6"/>
<text x="648" y="968" font-size="16" font-weight="700" fill="#111827">Jídelna</text>
<rect x="648" y="1008" width="240" height="122" fill="#f9fafb" stroke="#374151" stroke-width="2" rx="8" ry="8"/>
<rect x="658" y="1036" width="220" height="84" fill="#ede9fe" stroke="#374151" stroke-width="1.5"/>
<line x1="768" y1="1042" x2="768" y2="1114" stroke="#374151" stroke-width="1" stroke-dasharray="3,3"/>
<rect x="672" y="1048" width="82" height="40" fill="white" stroke="#374151" stroke-width="1" rx="3" ry="3"/>
<text x="713.0" y="1101" text-anchor="middle" font-family="sans-serif" font-size="11" font-weight="600" fill="#111827">LED 24V</text>
<text x="713.0" y="1115" text-anchor="middle" font-family="monospace" font-size="9" fill="#6b7280">L-13</text>
<rect x="782" y="1048" width="82" height="40" fill="white" stroke="#374151" stroke-width="1" rx="3" ry="3"/>
<text x="823.0" y="1101" text-anchor="middle" font-family="sans-serif" font-size="11" font-weight="600" fill="#111827">Lustr 220V</text>
<text x="823.0" y="1115" text-anchor="middle" font-family="monospace" font-size="9" fill="#6b7280">L-04</text>
<text x="658" y="1028" font-family="monospace" font-size="9" fill="#6b7280">P-JI</text>
<text x="878" y="1028" text-anchor="end" font-family="sans-serif" font-size="9" font-weight="700" fill="#6b7280">MIXED</text>
<path d="M 156.0 210 Q 156.0 180, 279.5 180 T 403.0 210" fill="none" stroke="#dc2626" stroke-width="2" opacity="0.85"/>
<circle cx="156.0" cy="210" r="3" fill="#dc2626"/>
<circle cx="403.0" cy="210" r="3" fill="#dc2626"/>
<rect x="255.5" y="170" width="48" height="14" fill="white" stroke="#dc2626" stroke-width="1" rx="3" ry="3"/>
<text x="279.5" y="181" text-anchor="middle" font-family="monospace" font-size="10" font-weight="700" fill="#dc2626">L-01</text>
<path d="M 403.0 210 Q 403.0 180, 588.0 180 T 773.0 210" fill="none" stroke="#dc2626" stroke-width="2" opacity="0.85"/>
<circle cx="403.0" cy="210" r="3" fill="#dc2626"/>
<circle cx="773.0" cy="210" r="3" fill="#dc2626"/>
<rect x="564.0" y="170" width="48" height="14" fill="white" stroke="#dc2626" stroke-width="1" rx="3" ry="3"/>
<text x="588.0" y="181" text-anchor="middle" font-family="monospace" font-size="10" font-weight="700" fill="#dc2626">L-01</text>
<path d="M 965.0 210 Q 965.0 166, 1081.5 166 T 1198.0 210" fill="none" stroke="#2563eb" stroke-width="2" opacity="0.85"/>
<circle cx="965.0" cy="210" r="3" fill="#2563eb"/>
<circle cx="1198.0" cy="210" r="3" fill="#2563eb"/>
<rect x="1057.5" y="156" width="48" height="14" fill="white" stroke="#2563eb" stroke-width="1" rx="3" ry="3"/>
<text x="1081.5" y="167" text-anchor="middle" font-family="monospace" font-size="10" font-weight="700" fill="#2563eb">L-02</text>
<path d="M 403.0 350 Q 403.0 152, 492.0 152 T 581.0 210" fill="none" stroke="#16a34a" stroke-width="2" opacity="0.85"/>
<circle cx="403.0" cy="350" r="3" fill="#16a34a"/>
<circle cx="581.0" cy="210" r="3" fill="#16a34a"/>
<rect x="468.0" y="142" width="48" height="14" fill="white" stroke="#16a34a" stroke-width="1" rx="3" ry="3"/>
<text x="492.0" y="153" text-anchor="middle" font-family="monospace" font-size="10" font-weight="700" fill="#16a34a">L-03</text>
<path d="M 965.0 350 Q 965.0 138, 1081.5 138 T 1198.0 210" fill="none" stroke="#c026d3" stroke-width="2" opacity="0.85"/>
<circle cx="965.0" cy="350" r="3" fill="#c026d3"/>
<circle cx="1198.0" cy="210" r="3" fill="#c026d3"/>
<rect x="1057.5" y="128" width="48" height="14" fill="white" stroke="#c026d3" stroke-width="1" rx="3" ry="3"/>
<text x="1081.5" y="139" text-anchor="middle" font-family="monospace" font-size="10" font-weight="700" fill="#c026d3">L-09</text>
<rect x="20" y="1185" width="14" height="14" fill="#ffedd5" stroke="#374151" stroke-width="1"/>
<text x="40" y="1196" font-size="11" fill="#111827">HUE</text>
<rect x="120" y="1185" width="14" height="14" fill="#dbeafe" stroke="#374151" stroke-width="1"/>
<text x="140" y="1196" font-size="11" fill="#111827">non-HUE</text>
<rect x="220" y="1185" width="14" height="14" fill="#ede9fe" stroke="#374151" stroke-width="1"/>
<text x="240" y="1196" font-size="11" fill="#111827">mixed</text>
<rect x="320" y="1185" width="14" height="14" fill="#e5e7eb" stroke="#374151" stroke-width="1"/>
<text x="340" y="1196" font-size="11" fill="#111827">existing</text>
</svg>