<svg xmlns="http://www.w3.org/2000/svg" viewBox="0 0 774 518" width="774" height="518" font-family="sans-serif">
<rect width="100%" height="100%" fill="white"/>
<text x="20" y="36" font-size="24" font-weight="700" fill="#111827">Stav po úpravě (Ložnice) — svítidla, vypínače a namontované Shelly</text>
<text x="20" y="58" font-size="12" font-style="italic" fill="#6b7280">Shelly (tmavá pilulka) je na buňce (pod vypínačem) nebo vpravo od svítidla (u spotřebiče). ⚡ = trvalá fáze (HUE/Vintage). Badge typu: Mini / 1PM / 2PM [A][D] / i4 / RGBW PM.</text>
<rect x="20" y="90" width="734" height="288" fill="#fefefe" stroke="#6b7280" stroke-width="1.5" stroke-dasharray="4,3" rx="6" ry="6"/>
<text x="36" y="120" font-size="16" font-weight="700" fill="#111827">Ložnice</text>
<text x="36" y="144" font-size="11" font-style="italic" fill="#6b7280">U zrcadla</text>
<rect x="36" y="160" width="130" height="122" fill="#f9fafb" stroke="#374151" stroke-width="2" rx="8" ry="8"/>
<rect x="46" y="188" width="110" height="84" fill="#dcfce7"/>
<rect x="46" y="188" width="110" height="84" fill="none" stroke="#374151" stroke-width="1.5"/>
<rect x="60" y="200" width="82" height="40" fill="white" stroke="#374151" stroke-width="1" rx="3" ry="3"/>
<text x="101.0" y="253" text-anchor="middle" font-family="sans-serif" font-size="11" font-weight="600" fill="#111827">Zrcadlo A+B</text>
<text x="101.0" y="267" text-anchor="middle" font-family="monospace" font-size="9" fill="#6b7280">L-20</text>
<rect x="120" y="255" width="32" height="13" fill="white" stroke="#047857" stroke-width="1" rx="2" ry="2"/>
<text x="136.0" y="264.5" text-anchor="middle" font-family="sans-serif" font-size="8" font-weight="700" fill="#047857">24V</text>
<text x="46" y="180" font-family="monospace" font-size="9" fill="#6b7280">P-LZ-ZRC</text>
<text x="214" y="144" font-size="11" font-style="italic" fill="#6b7280">U dveří</text>
<rect x="214" y="160" width="240" height="122" fill="#f9fafb" stroke="#374151" stroke-width="2" rx="8" ry="8"/>
<rect x="224" y="188" width="110" height="84" fill="#dcfce7"/>
<rect x="334" y="188" width="110" height="84" fill="#e9d5ff"/>
<rect x="224" y="188" width="220" height="84" fill="none" stroke="#374151" stroke-width="1.5"/>
<line x1="334" y1="194" x2="334" y2="266" stroke="#374151" stroke-width="1" stroke-dasharray="3,3"/>
<rect x="238" y="200" width="82" height="40" fill="white" stroke="#374151" stroke-width="1" rx="3" ry="3"/>
<text x="279.0" y="253" text-anchor="middle" font-family="sans-serif" font-size="11" font-weight="600" fill="#111827">Za+Pod postelí</text>
<text x="279.0" y="267" text-anchor="middle" font-family="monospace" font-size="9" fill="#6b7280">L-22</text>
<rect x="298" y="255" width="32" height="13" fill="white" stroke="#047857" stroke-width="1" rx="2" ry="2"/>
<text x="314.0" y="264.5" text-anchor="middle" font-family="sans-serif" font-size="8" font-weight="700" fill="#047857">24V</text>
<rect x="348" y="200" width="82" height="40" fill="white" stroke="#374151" stroke-width="1" rx="3" ry="3"/>
<text x="389.0" y="253" text-anchor="middle" font-family="sans-serif" font-size="11" font-weight="600" fill="#111827">Lustr</text>
<text x="389.0" y="267" text-anchor="middle" font-family="monospace" font-size="9" fill="#6b7280">L-24</text>
<rect x="408" y="255" width="32" height="13" fill="white" stroke="#1e3a8a" stroke-width="1" rx="2" ry="2"/>
<text x="424.0" y="264.5" text-anchor="middle" font-family="sans-serif" font-size="8" font-weight="700" fill="#1e3a8a">220V</text>
<text x="224" y="180" font-family="monospace" font-size="9" fill="#6b7280">P-LZ-D</text>
<text x="482" y="143" font-size="10" font-style="italic" fill="#6b7280">Svítidla</text>
<rect x="482" y="150" width="156" height="36" fill="#dcfce7" stroke="#374151" stroke-width="1" rx="14" ry="14"/>
<text x="492" y="163" font-family="monospace" font-size="8" fill="#6b7280">L-20</text>
<text x="492" y="178" font-size="11" font-weight="600" fill="#111827">Zrcadlo A</text>
<rect x="600" y="154" width="32" height="13" fill="white" stroke="#047857" stroke-width="1" rx="2" ry="2"/>
<text x="616.0" y="163.5" text-anchor="middle" font-family="sans-serif" font-size="8" font-weight="700" fill="#047857">24V</text>
<rect x="482" y="194" width="156" height="36" fill="#dcfce7" stroke="#374151" stroke-width="1" rx="14" ry="14"/>
<text x="492" y="207" font-family="monospace" font-size="8" fill="#6b7280">L-21</text>
<text x="492" y="222" font-size="11" font-weight="600" fill="#111827">Zrcadlo B</text>
<rect x="600" y="198" width="32" height="13" fill="white" stroke="#047857" stroke-width="1" rx="2" ry="2"/>
<text x="616.0" y="207.5" text-anchor="middle" font-family="sans-serif" font-size="8" font-weight="700" fill="#047857">24V</text>
<rect x="482" y="238" width="156" height="36" fill="#dcfce7" stroke="#374151" stroke-width="1" rx="14" ry="14"/>
<text x="492" y="251" font-family="monospace" font-size="8" fill="#6b7280">L-22</text>
<text x="492" y="266" font-size="11" font-weight="600" fill="#111827">Za postelí</text>
<rect x="600" y="242" width="32" height="13" fill="white" stroke="#047857" stroke-width="1" rx="2" ry="2"/>
<text x="616.0" y="251.5" text-anchor="middle" font-family="sans-serif" font-size="8" font-weight="700" fill="#047857">24V</text>
<rect x="482" y="282" width="156" height="36" fill="#dcfce7" stroke="#374151" stroke-width="1" rx="14" ry="14"/>
<text x="492" y="295" font-family="monospace" font-size="8" fill="#6b7280">L-23</text>
<text x="492" y="310" font-size="11" font-weight="600" fill="#111827">Pod postelí</text>
<rect x="600" y="286" width="32" height="13" fill="white" stroke="#047857" stroke-width="1" rx="2" ry="2"/>
<text x="616.0" y="295.5" text-anchor="middle" font-family="sans-serif" font-size="8" font-weight="700" fill="#047857">24V</text>
<rect x="482" y="326" width="156" height="36" fill="#e9d5ff" stroke="#374151" stroke-width="1" rx="14" ry="14"/>
<text x="492" y="339" font-family="monospace" font-size="8" fill="#6b7280">L-24</text>
<text x="492" y="354" font-size="11" font-weight="600" fill="#111827">Lustr (9× Vintage)</text>
<rect x="600" y="330" width="32" height="13" fill="white" stroke="#1e3a8a" stroke-width="1" rx="2" ry="2"/>
<text x="616.0" y="339.5" text-anchor="middle" font-family="sans-serif" font-size="8" font-weight="700" fill="#1e3a8a">220V</text>
<text x="630" y="358" text-anchor="end" font-size="9" font-weight="700" fill="#b45309">⚡ trvalá fáze</text>
<path d="M 101.0 230.0 C 291.5 230.0, 291.5 168.0, 482 168.0" fill="none" stroke="#dc2626" stroke-width="1.5" opacity="0.75"/>
<circle cx="101.0" cy="230.0" r="2.5" fill="#dc2626"/>
<circle cx="482" cy="168.0" r="2.5" fill="#dc2626"/>
<path d="M 279.0 230.0 C 380.5 230.0, 380.5 256.0, 482 256.0" fill="none" stroke="#2563eb" stroke-width="1.5" opacity="0.75"/>
<circle cx="279.0" cy="230.0" r="2.5" fill="#2563eb"/>
<circle cx="482" cy="256.0" r="2.5" fill="#2563eb"/>
<path d="M 389.0 230.0 C 435.5 230.0, 435.5 344.0, 482 344.0" fill="none" stroke="#16a34a" stroke-width="1.5" opacity="0.75"/>
<circle cx="389.0" cy="230.0" r="2.5" fill="#16a34a"/>
<circle cx="482" cy="344.0" r="2.5" fill="#16a34a"/>
<rect x="644" y="161.0" width="86" height="14" fill="#1f2937" rx="3" ry="3"/>
<text x="687.0" y="171.0" text-anchor="middle" font-family="monospace" font-size="9" font-weight="700" fill="#f9fafb">RGBW PM SH-13</text>
<rect x="644" y="205.0" width="86" height="14" fill="#1f2937" rx="3" ry="3"/>
<text x="687.0" y="215.0" text-anchor="middle" font-family="monospace" font-size="9" font-weight="700" fill="#f9fafb">RGBW PM SH-13</text>
<rect x="644" y="249.0" width="86" height="14" fill="#1f2937" rx="3" ry="3"/>
<text x="687.0" y="259.0" text-anchor="middle" font-family="monospace" font-size="9" font-weight="700" fill="#f9fafb">RGBW PM SH-13</text>
<rect x="644" y="293.0" width="86" height="14" fill="#1f2937" rx="3" ry="3"/>
<text x="687.0" y="303.0" text-anchor="middle" font-family="monospace" font-size="9" font-weight="700" fill="#f9fafb">RGBW PM SH-13</text>
<rect x="20" y="407" width="14" height="14" fill="#e9d5ff" stroke="#374151" stroke-width="1"/>
<text x="40" y="418" font-size="11" fill="#111827">HUE</text>
<rect x="130" y="407" width="14" height="14" fill="#dbeafe" stroke="#374151" stroke-width="1"/>
<text x="150" y="418" font-size="11" fill="#111827">non-HUE</text>
<rect x="240" y="407" width="14" height="14" fill="#fef3c7" stroke="#374151" stroke-width="1"/>
<text x="260" y="418" font-size="11" fill="#111827">LED-trafo</text>
<rect x="350" y="407" width="14" height="14" fill="#dcfce7" stroke="#374151" stroke-width="1"/>
<text x="370" y="418" font-size="11" fill="#111827">RGBW-PM</text>
<rect x="460" y="407" width="32" height="13" fill="white" stroke="#1e3a8a" stroke-width="1" rx="2" ry="2"/>
<text x="476.0" y="416.5" text-anchor="middle" font-family="sans-serif" font-size="8" font-weight="700" fill="#1e3a8a">220V</text>
<text x="498" y="418" font-size="11" fill="#111827">220V</text>
<rect x="560" y="407" width="32" height="13" fill="white" stroke="#047857" stroke-width="1" rx="2" ry="2"/>
<text x="576.0" y="416.5" text-anchor="middle" font-family="sans-serif" font-size="8" font-weight="700" fill="#047857">24V</text>
<text x="598" y="418" font-size="11" fill="#111827">24V</text>
<rect x="20" y="443" width="58" height="14" fill="#1f2937" rx="3" ry="3"/>
<text x="49.0" y="453" text-anchor="middle" font-family="monospace" font-size="9" font-weight="700" fill="#f9fafb">i4 SH-XX</text>
<text x="86" y="453" font-size="11" fill="#111827">namontovaný Shelly (na buňce = pod vypínačem; u svítidla = u spotřebiče)</text>
<rect x="20" y="461" width="84" height="13" fill="#fef3c7" stroke="#d97706" stroke-width="1" rx="3" ry="3"/>
<text x="62" y="471" text-anchor="middle" font-family="sans-serif" font-size="9" font-weight="700" fill="#92400e">↯ relé 220→24V</text>
<text x="112" y="471" font-size="11" fill="#111827">předsazené relé (konverze 220V signálu na 24V pro Shelly vstup)</text>
<text x="20" y="489" font-size="11" font-weight="700" fill="#b45309">⚡ trvalá fáze</text>
<text x="120" y="489" font-size="11" fill="#111827">svítidlo má fázi stále pod proudem (HUE / Shelly Vintage); Shelly je detached, čte jen event</text>
</svg>